G04 #@! TF.GenerationSoftware,KiCad,Pcbnew,(5.0.0)*
G04 #@! TF.CreationDate,2020-04-22T19:14:28+02:00*
G04 #@! TF.ProjectId,Homesensor,486F6D6573656E736F722E6B69636164,rev?*
G04 #@! TF.SameCoordinates,Original*
G04 #@! TF.FileFunction,Soldermask,Top*
G04 #@! TF.FilePolarity,Negative*
%FSLAX46Y46*%
G04 Gerber Fmt 4.6, Leading zero omitted, Abs format (unit mm)*
G04 Created by KiCad (PCBNEW (5.0.0)) date 04/22/20 19:14:28*
%MOMM*%
%LPD*%
G01*
G04 APERTURE LIST*
%ADD10C,1.900000*%
%ADD11C,2.700000*%
%ADD12C,0.254000*%
G04 APERTURE END LIST*
D10*
G04 #@! TO.C,REF\002A\002A*
X81280000Y-53340000D03*
G04 #@! TD*
G04 #@! TO.C,REF\002A\002A*
X78740000Y-53340000D03*
G04 #@! TD*
G04 #@! TO.C,REF\002A\002A*
X78740000Y-76200000D03*
G04 #@! TD*
G04 #@! TO.C,REF\002A\002A*
X81280000Y-76200000D03*
G04 #@! TD*
G04 #@! TO.C,REF\002A\002A*
X83820000Y-76200000D03*
G04 #@! TD*
G04 #@! TO.C,REF\002A\002A*
X86360000Y-76200000D03*
G04 #@! TD*
G04 #@! TO.C,REF\002A\002A*
X88900000Y-76200000D03*
G04 #@! TD*
G04 #@! TO.C,REF\002A\002A*
X91440000Y-76200000D03*
G04 #@! TD*
G04 #@! TO.C,REF\002A\002A*
X93980000Y-76200000D03*
G04 #@! TD*
G04 #@! TO.C,REF\002A\002A*
X96520000Y-76200000D03*
G04 #@! TD*
G04 #@! TO.C,REF\002A\002A*
X99060000Y-76200000D03*
G04 #@! TD*
G04 #@! TO.C,REF\002A\002A*
X101600000Y-76200000D03*
G04 #@! TD*
G04 #@! TO.C,REF\002A\002A*
X114300000Y-76200000D03*
G04 #@! TD*
G04 #@! TO.C,REF\002A\002A*
X111760000Y-76200000D03*
G04 #@! TD*
G04 #@! TO.C,REF\002A\002A*
X109220000Y-76200000D03*
G04 #@! TD*
G04 #@! TO.C,REF\002A\002A*
X106680000Y-76200000D03*
G04 #@! TD*
G04 #@! TO.C,REF\002A\002A*
X104140000Y-76200000D03*
G04 #@! TD*
G04 #@! TO.C,REF\002A\002A*
X104140000Y-78740000D03*
G04 #@! TD*
G04 #@! TO.C,REF\002A\002A*
X104140000Y-81280000D03*
G04 #@! TD*
G04 #@! TO.C,REF\002A\002A*
X104140000Y-83820000D03*
G04 #@! TD*
G04 #@! TO.C,REF\002A\002A*
X104140000Y-86360000D03*
G04 #@! TD*
G04 #@! TO.C,REF\002A\002A*
X104140000Y-88900000D03*
G04 #@! TD*
G04 #@! TO.C,REF\002A\002A*
X104140000Y-91440000D03*
G04 #@! TD*
G04 #@! TO.C,REF\002A\002A*
X104140000Y-93980000D03*
G04 #@! TD*
G04 #@! TO.C,REF\002A\002A*
X104140000Y-96520000D03*
G04 #@! TD*
G04 #@! TO.C,REF\002A\002A*
X81280000Y-96520000D03*
G04 #@! TD*
G04 #@! TO.C,REF\002A\002A*
X81280000Y-93980000D03*
G04 #@! TD*
G04 #@! TO.C,REF\002A\002A*
X81280000Y-91440000D03*
G04 #@! TD*
G04 #@! TO.C,REF\002A\002A*
X81280000Y-86360000D03*
G04 #@! TD*
G04 #@! TO.C,REF\002A\002A*
X81280000Y-83820000D03*
G04 #@! TD*
G04 #@! TO.C,REF\002A\002A*
X81280000Y-81280000D03*
G04 #@! TD*
G04 #@! TO.C,REF\002A\002A*
X114300000Y-83820000D03*
G04 #@! TD*
G04 #@! TO.C,REF\002A\002A*
X111760000Y-83820000D03*
G04 #@! TD*
G04 #@! TO.C,REF\002A\002A*
X109220000Y-83820000D03*
G04 #@! TD*
G04 #@! TO.C,REF\002A\002A*
X109220000Y-93980000D03*
G04 #@! TD*
G04 #@! TO.C,REF\002A\002A*
X111760000Y-93980000D03*
G04 #@! TD*
G04 #@! TO.C,REF\002A\002A*
X114300000Y-93980000D03*
G04 #@! TD*
G04 #@! TO.C,REF\002A\002A*
X129540000Y-93980000D03*
G04 #@! TD*
G04 #@! TO.C,REF\002A\002A*
X132080000Y-93980000D03*
G04 #@! TD*
G04 #@! TO.C,REF\002A\002A*
X134620000Y-93980000D03*
G04 #@! TD*
G04 #@! TO.C,REF\002A\002A*
X134620000Y-81280000D03*
G04 #@! TD*
G04 #@! TO.C,REF\002A\002A*
X134620000Y-78740000D03*
G04 #@! TD*
G04 #@! TO.C,REF\002A\002A*
X134620000Y-76200000D03*
G04 #@! TD*
G04 #@! TO.C,REF\002A\002A*
X134620000Y-73660000D03*
G04 #@! TD*
G04 #@! TO.C,REF\002A\002A*
X93980000Y-66040000D03*
G04 #@! TD*
G04 #@! TO.C,REF\002A\002A*
X91440000Y-66040000D03*
G04 #@! TD*
G04 #@! TO.C,REF\002A\002A*
X91440000Y-63500000D03*
G04 #@! TD*
G04 #@! TO.C,REF\002A\002A*
X134620000Y-53340000D03*
G04 #@! TD*
G04 #@! TO.C,REF\002A\002A*
X132080000Y-53340000D03*
G04 #@! TD*
G04 #@! TO.C,REF\002A\002A*
X129540000Y-53340000D03*
G04 #@! TD*
G04 #@! TO.C,REF\002A\002A*
X127000000Y-53340000D03*
G04 #@! TD*
G04 #@! TO.C,REF\002A\002A*
X124460000Y-53340000D03*
G04 #@! TD*
G04 #@! TO.C,REF\002A\002A*
X114300000Y-53340000D03*
G04 #@! TD*
G04 #@! TO.C,REF\002A\002A*
X111760000Y-53340000D03*
G04 #@! TD*
G04 #@! TO.C,REF\002A\002A*
X109220000Y-53340000D03*
G04 #@! TD*
G04 #@! TO.C,REF\002A\002A*
X106680000Y-53340000D03*
G04 #@! TD*
G04 #@! TO.C,REF\002A\002A*
X104140000Y-53340000D03*
G04 #@! TD*
G04 #@! TO.C,REF\002A\002A*
X104140000Y-53340000D03*
G04 #@! TD*
G04 #@! TO.C,REF\002A\002A*
X101600000Y-53340000D03*
G04 #@! TD*
G04 #@! TO.C,REF\002A\002A*
X99060000Y-53340000D03*
G04 #@! TD*
G04 #@! TO.C,REF\002A\002A*
X96520000Y-53340000D03*
G04 #@! TD*
G04 #@! TO.C,REF\002A\002A*
X93980000Y-53340000D03*
G04 #@! TD*
G04 #@! TO.C,REF\002A\002A*
X91440000Y-53340000D03*
G04 #@! TD*
G04 #@! TO.C,REF\002A\002A*
X88900000Y-53340000D03*
G04 #@! TD*
G04 #@! TO.C,REF\002A\002A*
X86360000Y-53340000D03*
G04 #@! TD*
G04 #@! TO.C,REF\002A\002A*
X83820000Y-53340000D03*
G04 #@! TD*
G04 #@! TO.C,REF\002A\002A*
X81280000Y-66040000D03*
G04 #@! TD*
G04 #@! TO.C,REF\002A\002A*
X81280000Y-63500000D03*
G04 #@! TD*
G04 #@! TO.C,REF\002A\002A*
X81280000Y-60960000D03*
G04 #@! TD*
D11*
G04 #@! TO.C,REF\002A\002A*
X75025000Y-51930000D03*
G04 #@! TD*
G04 #@! TO.C,REF\002A\002A*
X75025000Y-97930000D03*
G04 #@! TD*
G04 #@! TO.C,REF\002A\002A*
X140875000Y-97930000D03*
G04 #@! TD*
G04 #@! TO.C,REF\002A\002A*
X140875000Y-51930000D03*
G04 #@! TD*
D12*
G36*
X91948000Y-65405000D02*
X91957667Y-65453601D01*
X91985197Y-65494803D01*
X92026399Y-65522333D01*
X92075000Y-65532000D01*
X93927394Y-65532000D01*
X94435394Y-66040000D01*
X93927394Y-66548000D01*
X91492606Y-66548000D01*
X90932000Y-65987394D01*
X90932000Y-63627000D01*
X91948000Y-63627000D01*
X91948000Y-65405000D01*
X91948000Y-65405000D01*
G37*
X91948000Y-65405000D02*
X91957667Y-65453601D01*
X91985197Y-65494803D01*
X92026399Y-65522333D01*
X92075000Y-65532000D01*
X93927394Y-65532000D01*
X94435394Y-66040000D01*
X93927394Y-66548000D01*
X91492606Y-66548000D01*
X90932000Y-65987394D01*
X90932000Y-63627000D01*
X91948000Y-63627000D01*
X91948000Y-65405000D01*
M02*
