G04 #@! TF.GenerationSoftware,KiCad,Pcbnew,(5.0.0)*
G04 #@! TF.CreationDate,2020-04-22T19:14:28+02:00*
G04 #@! TF.ProjectId,Homesensor,486F6D6573656E736F722E6B69636164,rev?*
G04 #@! TF.SameCoordinates,Original*
G04 #@! TF.FileFunction,Copper,L1,Top,Signal*
G04 #@! TF.FilePolarity,Positive*
%FSLAX46Y46*%
G04 Gerber Fmt 4.6, Leading zero omitted, Abs format (unit mm)*
G04 Created by KiCad (PCBNEW (5.0.0)) date 04/22/20 19:14:28*
%MOMM*%
%LPD*%
G01*
G04 APERTURE LIST*
G04 #@! TA.AperFunction,ComponentPad*
%ADD10C,1.900000*%
G04 #@! TD*
G04 #@! TA.AperFunction,ViaPad*
%ADD11C,0.800000*%
G04 #@! TD*
G04 #@! TA.AperFunction,Conductor*
%ADD12C,0.300000*%
G04 #@! TD*
G04 APERTURE END LIST*
D10*
G04 #@! TO.P,REF\002A\002A,1*
G04 #@! TO.N,N/C*
X81280000Y-53340000D03*
G04 #@! TD*
G04 #@! TO.P,REF\002A\002A,1*
G04 #@! TO.N,N/C*
X78740000Y-53340000D03*
G04 #@! TD*
G04 #@! TO.P,REF\002A\002A,1*
G04 #@! TO.N,N/C*
X78740000Y-76200000D03*
G04 #@! TD*
G04 #@! TO.P,REF\002A\002A,1*
G04 #@! TO.N,N/C*
X81280000Y-76200000D03*
G04 #@! TD*
G04 #@! TO.P,REF\002A\002A,1*
G04 #@! TO.N,N/C*
X83820000Y-76200000D03*
G04 #@! TD*
G04 #@! TO.P,REF\002A\002A,1*
G04 #@! TO.N,N/C*
X86360000Y-76200000D03*
G04 #@! TD*
G04 #@! TO.P,REF\002A\002A,1*
G04 #@! TO.N,N/C*
X88900000Y-76200000D03*
G04 #@! TD*
G04 #@! TO.P,REF\002A\002A,1*
G04 #@! TO.N,N/C*
X91440000Y-76200000D03*
G04 #@! TD*
G04 #@! TO.P,REF\002A\002A,1*
G04 #@! TO.N,N/C*
X93980000Y-76200000D03*
G04 #@! TD*
G04 #@! TO.P,REF\002A\002A,1*
G04 #@! TO.N,N/C*
X96520000Y-76200000D03*
G04 #@! TD*
G04 #@! TO.P,REF\002A\002A,1*
G04 #@! TO.N,N/C*
X99060000Y-76200000D03*
G04 #@! TD*
G04 #@! TO.P,REF\002A\002A,1*
G04 #@! TO.N,N/C*
X101600000Y-76200000D03*
G04 #@! TD*
G04 #@! TO.P,REF\002A\002A,1*
G04 #@! TO.N,N/C*
X114300000Y-76200000D03*
G04 #@! TD*
G04 #@! TO.P,REF\002A\002A,1*
G04 #@! TO.N,N/C*
X111760000Y-76200000D03*
G04 #@! TD*
G04 #@! TO.P,REF\002A\002A,1*
G04 #@! TO.N,N/C*
X109220000Y-76200000D03*
G04 #@! TD*
G04 #@! TO.P,REF\002A\002A,1*
G04 #@! TO.N,N/C*
X106680000Y-76200000D03*
G04 #@! TD*
G04 #@! TO.P,REF\002A\002A,1*
G04 #@! TO.N,N/C*
X104140000Y-76200000D03*
G04 #@! TD*
G04 #@! TO.P,REF\002A\002A,1*
G04 #@! TO.N,N/C*
X104140000Y-78740000D03*
G04 #@! TD*
G04 #@! TO.P,REF\002A\002A,1*
G04 #@! TO.N,N/C*
X104140000Y-81280000D03*
G04 #@! TD*
G04 #@! TO.P,REF\002A\002A,1*
G04 #@! TO.N,N/C*
X104140000Y-83820000D03*
G04 #@! TD*
G04 #@! TO.P,REF\002A\002A,1*
G04 #@! TO.N,N/C*
X104140000Y-86360000D03*
G04 #@! TD*
G04 #@! TO.P,REF\002A\002A,1*
G04 #@! TO.N,N/C*
X104140000Y-88900000D03*
G04 #@! TD*
G04 #@! TO.P,REF\002A\002A,1*
G04 #@! TO.N,N/C*
X104140000Y-91440000D03*
G04 #@! TD*
G04 #@! TO.P,REF\002A\002A,1*
G04 #@! TO.N,N/C*
X104140000Y-93980000D03*
G04 #@! TD*
G04 #@! TO.P,REF\002A\002A,1*
G04 #@! TO.N,N/C*
X104140000Y-96520000D03*
G04 #@! TD*
G04 #@! TO.P,REF\002A\002A,1*
G04 #@! TO.N,N/C*
X81280000Y-96520000D03*
G04 #@! TD*
G04 #@! TO.P,REF\002A\002A,1*
G04 #@! TO.N,N/C*
X81280000Y-93980000D03*
G04 #@! TD*
G04 #@! TO.P,REF\002A\002A,1*
G04 #@! TO.N,N/C*
X81280000Y-91440000D03*
G04 #@! TD*
G04 #@! TO.P,REF\002A\002A,1*
G04 #@! TO.N,N/C*
X81280000Y-86360000D03*
G04 #@! TD*
G04 #@! TO.P,REF\002A\002A,1*
G04 #@! TO.N,N/C*
X81280000Y-83820000D03*
G04 #@! TD*
G04 #@! TO.P,REF\002A\002A,1*
G04 #@! TO.N,N/C*
X81280000Y-81280000D03*
G04 #@! TD*
G04 #@! TO.P,REF\002A\002A,1*
G04 #@! TO.N,N/C*
X114300000Y-83820000D03*
G04 #@! TD*
G04 #@! TO.P,REF\002A\002A,1*
G04 #@! TO.N,N/C*
X111760000Y-83820000D03*
G04 #@! TD*
G04 #@! TO.P,REF\002A\002A,1*
G04 #@! TO.N,N/C*
X109220000Y-83820000D03*
G04 #@! TD*
G04 #@! TO.P,REF\002A\002A,1*
G04 #@! TO.N,N/C*
X109220000Y-93980000D03*
G04 #@! TD*
G04 #@! TO.P,REF\002A\002A,1*
G04 #@! TO.N,N/C*
X111760000Y-93980000D03*
G04 #@! TD*
G04 #@! TO.P,REF\002A\002A,1*
G04 #@! TO.N,N/C*
X114300000Y-93980000D03*
G04 #@! TD*
G04 #@! TO.P,REF\002A\002A,1*
G04 #@! TO.N,N/C*
X129540000Y-93980000D03*
G04 #@! TD*
G04 #@! TO.P,REF\002A\002A,1*
G04 #@! TO.N,N/C*
X132080000Y-93980000D03*
G04 #@! TD*
G04 #@! TO.P,REF\002A\002A,1*
G04 #@! TO.N,N/C*
X134620000Y-93980000D03*
G04 #@! TD*
G04 #@! TO.P,REF\002A\002A,1*
G04 #@! TO.N,N/C*
X134620000Y-81280000D03*
G04 #@! TD*
G04 #@! TO.P,REF\002A\002A,1*
G04 #@! TO.N,N/C*
X134620000Y-78740000D03*
G04 #@! TD*
G04 #@! TO.P,REF\002A\002A,1*
G04 #@! TO.N,N/C*
X134620000Y-76200000D03*
G04 #@! TD*
G04 #@! TO.P,REF\002A\002A,1*
G04 #@! TO.N,N/C*
X134620000Y-73660000D03*
G04 #@! TD*
G04 #@! TO.P,REF\002A\002A,1*
G04 #@! TO.N,N/C*
X93980000Y-66040000D03*
G04 #@! TD*
G04 #@! TO.P,REF\002A\002A,1*
G04 #@! TO.N,N/C*
X91440000Y-66040000D03*
G04 #@! TD*
G04 #@! TO.P,REF\002A\002A,1*
G04 #@! TO.N,N/C*
X91440000Y-63500000D03*
G04 #@! TD*
G04 #@! TO.P,REF\002A\002A,1*
G04 #@! TO.N,N/C*
X134620000Y-53340000D03*
G04 #@! TD*
G04 #@! TO.P,REF\002A\002A,1*
G04 #@! TO.N,N/C*
X132080000Y-53340000D03*
G04 #@! TD*
G04 #@! TO.P,REF\002A\002A,1*
G04 #@! TO.N,N/C*
X129540000Y-53340000D03*
G04 #@! TD*
G04 #@! TO.P,REF\002A\002A,1*
G04 #@! TO.N,N/C*
X127000000Y-53340000D03*
G04 #@! TD*
G04 #@! TO.P,REF\002A\002A,1*
G04 #@! TO.N,N/C*
X124460000Y-53340000D03*
G04 #@! TD*
G04 #@! TO.P,REF\002A\002A,1*
G04 #@! TO.N,N/C*
X114300000Y-53340000D03*
G04 #@! TD*
G04 #@! TO.P,REF\002A\002A,1*
G04 #@! TO.N,N/C*
X111760000Y-53340000D03*
G04 #@! TD*
G04 #@! TO.P,REF\002A\002A,1*
G04 #@! TO.N,N/C*
X109220000Y-53340000D03*
G04 #@! TD*
G04 #@! TO.P,REF\002A\002A,1*
G04 #@! TO.N,N/C*
X106680000Y-53340000D03*
G04 #@! TD*
G04 #@! TO.P,REF\002A\002A,1*
G04 #@! TO.N,N/C*
X104140000Y-53340000D03*
G04 #@! TD*
G04 #@! TO.P,REF\002A\002A,1*
G04 #@! TO.N,N/C*
X104140000Y-53340000D03*
G04 #@! TD*
G04 #@! TO.P,REF\002A\002A,1*
G04 #@! TO.N,N/C*
X101600000Y-53340000D03*
G04 #@! TD*
G04 #@! TO.P,REF\002A\002A,1*
G04 #@! TO.N,N/C*
X99060000Y-53340000D03*
G04 #@! TD*
G04 #@! TO.P,REF\002A\002A,1*
G04 #@! TO.N,N/C*
X96520000Y-53340000D03*
G04 #@! TD*
G04 #@! TO.P,REF\002A\002A,1*
G04 #@! TO.N,N/C*
X93980000Y-53340000D03*
G04 #@! TD*
G04 #@! TO.P,REF\002A\002A,1*
G04 #@! TO.N,N/C*
X91440000Y-53340000D03*
G04 #@! TD*
G04 #@! TO.P,REF\002A\002A,1*
G04 #@! TO.N,N/C*
X88900000Y-53340000D03*
G04 #@! TD*
G04 #@! TO.P,REF\002A\002A,1*
G04 #@! TO.N,N/C*
X86360000Y-53340000D03*
G04 #@! TD*
G04 #@! TO.P,REF\002A\002A,1*
G04 #@! TO.N,N/C*
X83820000Y-53340000D03*
G04 #@! TD*
G04 #@! TO.P,REF\002A\002A,1*
G04 #@! TO.N,N/C*
X81280000Y-66040000D03*
G04 #@! TD*
G04 #@! TO.P,REF\002A\002A,1*
G04 #@! TO.N,N/C*
X81280000Y-63500000D03*
G04 #@! TD*
G04 #@! TO.P,REF\002A\002A,1*
G04 #@! TO.N,N/C*
X81280000Y-60960000D03*
G04 #@! TD*
D11*
G04 #@! TO.N,*
X101600000Y-78740000D03*
X78740000Y-73660000D03*
X78740000Y-78740000D03*
X129540000Y-57150000D03*
X83820000Y-83820000D03*
X83820000Y-93980000D03*
X81280000Y-55880000D03*
X91440000Y-55880000D03*
X99060000Y-93980000D03*
X119380000Y-60960000D03*
X101600000Y-96520014D03*
X106680000Y-91440000D03*
X116840000Y-88900000D03*
X116840000Y-91440000D03*
X91440000Y-86360000D03*
X93980000Y-96519986D03*
X114300000Y-55880000D03*
X85090000Y-63500006D03*
X132080000Y-96520000D03*
X127000000Y-78740000D03*
X123190000Y-63500000D03*
X127000000Y-66040000D03*
X129540000Y-71120000D03*
X116840000Y-73660000D03*
X86360000Y-73660000D03*
X106680000Y-55880000D03*
G04 #@! TD*
D12*
G04 #@! TO.N,*
X78740000Y-81280000D02*
X81280000Y-81280000D01*
X81280000Y-63500000D02*
X82550000Y-63500000D01*
X82550000Y-63500000D02*
X85090000Y-63500000D01*
X78740000Y-78740000D02*
X78740000Y-81280000D01*
X81280000Y-83820000D02*
X83820000Y-83820000D01*
X81280000Y-93980000D02*
X83820000Y-93980000D01*
X85090000Y-63500000D02*
X85090000Y-55880000D01*
X85090000Y-55880000D02*
X81280000Y-55880000D01*
X91440000Y-55880000D02*
X85090000Y-55880000D01*
X83820000Y-93980000D02*
X99060000Y-93980000D01*
X101600000Y-78740000D02*
X101600000Y-96520014D01*
X118110000Y-91440000D02*
X119380000Y-90170000D01*
X116840000Y-91440000D02*
X118110000Y-91440000D01*
X119380000Y-90170000D02*
X119380000Y-60960000D01*
X80010000Y-60960000D02*
X81280000Y-60960000D01*
X78740000Y-73660000D02*
X78740000Y-62230000D01*
X78740000Y-62230000D02*
X80010000Y-60960000D01*
X80010000Y-91440000D02*
X81280000Y-91440000D01*
X78740000Y-81280000D02*
X78740000Y-90170000D01*
X78740000Y-90170000D02*
X80010000Y-91440000D01*
X81280000Y-86360000D02*
X91440000Y-86360000D01*
X93979986Y-96520000D02*
X93980000Y-96519986D01*
X81280000Y-96520000D02*
X93979986Y-96520000D01*
X85090000Y-63500000D02*
X85090000Y-63500006D01*
X114300000Y-62230000D02*
X114300000Y-55880000D01*
X81280000Y-66040000D02*
X87630000Y-66040000D01*
X107950000Y-88900000D02*
X116840000Y-88900000D01*
X106680000Y-91440000D02*
X106680000Y-90170000D01*
X106680000Y-90170000D02*
X107950000Y-88900000D01*
X127000000Y-78740000D02*
X127000000Y-66040000D01*
X129540000Y-57150000D02*
X129540000Y-71120000D01*
X116840000Y-73660000D02*
X86360000Y-73660000D01*
X87630000Y-66040000D02*
X91440000Y-66040000D01*
X91440000Y-63500000D02*
X105410000Y-63500000D01*
X105410000Y-63500000D02*
X106680000Y-62230000D01*
X106680000Y-62230000D02*
X106680000Y-55880000D01*
X93980000Y-66040000D02*
X113030000Y-66040000D01*
X113030000Y-66040000D02*
X114300000Y-64770000D01*
X114300000Y-64770000D02*
X114300000Y-62230000D01*
X123190000Y-63782842D02*
X123190000Y-63500000D01*
X123190000Y-95250000D02*
X123190000Y-63782842D01*
X132080000Y-96520000D02*
X124460000Y-96520000D01*
X124460000Y-96520000D02*
X123190000Y-95250000D01*
G04 #@! TD*
M02*
