G04 #@! TF.GenerationSoftware,KiCad,Pcbnew,(5.0.0)*
G04 #@! TF.CreationDate,2020-04-22T19:14:28+02:00*
G04 #@! TF.ProjectId,Homesensor,486F6D6573656E736F722E6B69636164,rev?*
G04 #@! TF.SameCoordinates,Original*
G04 #@! TF.FileFunction,Legend,Top*
G04 #@! TF.FilePolarity,Positive*
%FSLAX46Y46*%
G04 Gerber Fmt 4.6, Leading zero omitted, Abs format (unit mm)*
G04 Created by KiCad (PCBNEW (5.0.0)) date 04/22/20 19:14:28*
%MOMM*%
%LPD*%
G01*
G04 APERTURE LIST*
%ADD10C,0.200000*%
%ADD11C,0.250000*%
%ADD12C,0.300000*%
G04 APERTURE END LIST*
D10*
X111217142Y-55680000D02*
X111788571Y-55280000D01*
X111217142Y-54994285D02*
X112417142Y-54994285D01*
X112417142Y-55451428D01*
X112360000Y-55565714D01*
X112302857Y-55622857D01*
X112188571Y-55680000D01*
X112017142Y-55680000D01*
X111902857Y-55622857D01*
X111845714Y-55565714D01*
X111788571Y-55451428D01*
X111788571Y-54994285D01*
X111274285Y-56137142D02*
X111217142Y-56308571D01*
X111217142Y-56594285D01*
X111274285Y-56708571D01*
X111331428Y-56765714D01*
X111445714Y-56822857D01*
X111560000Y-56822857D01*
X111674285Y-56765714D01*
X111731428Y-56708571D01*
X111788571Y-56594285D01*
X111845714Y-56365714D01*
X111902857Y-56251428D01*
X111960000Y-56194285D01*
X112074285Y-56137142D01*
X112188571Y-56137142D01*
X112302857Y-56194285D01*
X112360000Y-56251428D01*
X112417142Y-56365714D01*
X112417142Y-56651428D01*
X112360000Y-56822857D01*
X108677142Y-55680000D02*
X109248571Y-55280000D01*
X108677142Y-54994285D02*
X109877142Y-54994285D01*
X109877142Y-55451428D01*
X109820000Y-55565714D01*
X109762857Y-55622857D01*
X109648571Y-55680000D01*
X109477142Y-55680000D01*
X109362857Y-55622857D01*
X109305714Y-55565714D01*
X109248571Y-55451428D01*
X109248571Y-54994285D01*
X108734285Y-56137142D02*
X108677142Y-56308571D01*
X108677142Y-56594285D01*
X108734285Y-56708571D01*
X108791428Y-56765714D01*
X108905714Y-56822857D01*
X109020000Y-56822857D01*
X109134285Y-56765714D01*
X109191428Y-56708571D01*
X109248571Y-56594285D01*
X109305714Y-56365714D01*
X109362857Y-56251428D01*
X109420000Y-56194285D01*
X109534285Y-56137142D01*
X109648571Y-56137142D01*
X109762857Y-56194285D01*
X109820000Y-56251428D01*
X109877142Y-56365714D01*
X109877142Y-56651428D01*
X109820000Y-56822857D01*
X101057142Y-54851428D02*
X102257142Y-54851428D01*
X101400000Y-55251428D01*
X102257142Y-55651428D01*
X101057142Y-55651428D01*
X102257142Y-56451428D02*
X102257142Y-56680000D01*
X102200000Y-56794285D01*
X102085714Y-56908571D01*
X101857142Y-56965714D01*
X101457142Y-56965714D01*
X101228571Y-56908571D01*
X101114285Y-56794285D01*
X101057142Y-56680000D01*
X101057142Y-56451428D01*
X101114285Y-56337142D01*
X101228571Y-56222857D01*
X101457142Y-56165714D01*
X101857142Y-56165714D01*
X102085714Y-56222857D01*
X102200000Y-56337142D01*
X102257142Y-56451428D01*
X98631428Y-55680000D02*
X98574285Y-55622857D01*
X98517142Y-55451428D01*
X98517142Y-55337142D01*
X98574285Y-55165714D01*
X98688571Y-55051428D01*
X98802857Y-54994285D01*
X99031428Y-54937142D01*
X99202857Y-54937142D01*
X99431428Y-54994285D01*
X99545714Y-55051428D01*
X99660000Y-55165714D01*
X99717142Y-55337142D01*
X99717142Y-55451428D01*
X99660000Y-55622857D01*
X99602857Y-55680000D01*
X98574285Y-56137142D02*
X98517142Y-56308571D01*
X98517142Y-56594285D01*
X98574285Y-56708571D01*
X98631428Y-56765714D01*
X98745714Y-56822857D01*
X98860000Y-56822857D01*
X98974285Y-56765714D01*
X99031428Y-56708571D01*
X99088571Y-56594285D01*
X99145714Y-56365714D01*
X99202857Y-56251428D01*
X99260000Y-56194285D01*
X99374285Y-56137142D01*
X99488571Y-56137142D01*
X99602857Y-56194285D01*
X99660000Y-56251428D01*
X99717142Y-56365714D01*
X99717142Y-56651428D01*
X99660000Y-56822857D01*
X95977142Y-55194285D02*
X97177142Y-55194285D01*
X96320000Y-55594285D01*
X97177142Y-55994285D01*
X95977142Y-55994285D01*
X95977142Y-56565714D02*
X97177142Y-56565714D01*
X93494285Y-54937142D02*
X93437142Y-55108571D01*
X93437142Y-55394285D01*
X93494285Y-55508571D01*
X93551428Y-55565714D01*
X93665714Y-55622857D01*
X93780000Y-55622857D01*
X93894285Y-55565714D01*
X93951428Y-55508571D01*
X94008571Y-55394285D01*
X94065714Y-55165714D01*
X94122857Y-55051428D01*
X94180000Y-54994285D01*
X94294285Y-54937142D01*
X94408571Y-54937142D01*
X94522857Y-54994285D01*
X94580000Y-55051428D01*
X94637142Y-55165714D01*
X94637142Y-55451428D01*
X94580000Y-55622857D01*
X93551428Y-56822857D02*
X93494285Y-56765714D01*
X93437142Y-56594285D01*
X93437142Y-56480000D01*
X93494285Y-56308571D01*
X93608571Y-56194285D01*
X93722857Y-56137142D01*
X93951428Y-56080000D01*
X94122857Y-56080000D01*
X94351428Y-56137142D01*
X94465714Y-56194285D01*
X94580000Y-56308571D01*
X94637142Y-56480000D01*
X94637142Y-56594285D01*
X94580000Y-56765714D01*
X94522857Y-56822857D01*
X86445714Y-54994285D02*
X86445714Y-55394285D01*
X85817142Y-55565714D02*
X85817142Y-54994285D01*
X87017142Y-54994285D01*
X87017142Y-55565714D01*
X85817142Y-56080000D02*
X87017142Y-56080000D01*
X85817142Y-56765714D01*
X87017142Y-56765714D01*
X83277142Y-55794285D02*
X83848571Y-55394285D01*
X83277142Y-55108571D02*
X84477142Y-55108571D01*
X84477142Y-55565714D01*
X84420000Y-55680000D01*
X84362857Y-55737142D01*
X84248571Y-55794285D01*
X84077142Y-55794285D01*
X83962857Y-55737142D01*
X83905714Y-55680000D01*
X83848571Y-55565714D01*
X83848571Y-55108571D01*
X84477142Y-56137142D02*
X84477142Y-56822857D01*
X83277142Y-56480000D02*
X84477142Y-56480000D01*
X73660000Y-62230000D02*
X73660000Y-54610000D01*
X73660000Y-77470000D02*
X73660000Y-62230000D01*
X115570000Y-77470000D02*
X73660000Y-77470000D01*
X115570000Y-52070000D02*
X115570000Y-77470000D01*
X77470000Y-52070000D02*
X115570000Y-52070000D01*
X135890000Y-82550000D02*
X135890000Y-72390000D01*
X123190000Y-82550000D02*
X135890000Y-82550000D01*
X123190000Y-72390000D02*
X123190000Y-82550000D01*
X135890000Y-72390000D02*
X123190000Y-72390000D01*
X116840000Y-82550000D02*
X106680000Y-82550000D01*
X116840000Y-95250000D02*
X116840000Y-82550000D01*
X106680000Y-95250000D02*
X116840000Y-95250000D01*
X106680000Y-82550000D02*
X106680000Y-95250000D01*
X105410000Y-97790000D02*
X105410000Y-77470000D01*
X90170000Y-97790000D02*
X105410000Y-97790000D01*
X90170000Y-77470000D02*
X90170000Y-97790000D01*
X105410000Y-77470000D02*
X90170000Y-77470000D01*
X135890000Y-52070000D02*
X123190000Y-52070000D01*
X135890000Y-64770000D02*
X135890000Y-52070000D01*
X123190000Y-64770000D02*
X135890000Y-64770000D01*
X123190000Y-52070000D02*
X123190000Y-64770000D01*
X137160000Y-95250000D02*
X127000000Y-95250000D01*
X137160000Y-85090000D02*
X137160000Y-95250000D01*
X127000000Y-85090000D02*
X137160000Y-85090000D01*
X127000000Y-95250000D02*
X127000000Y-85090000D01*
D11*
X76470000Y-62733333D02*
X76470000Y-63733333D01*
X76403333Y-63933333D01*
X76270000Y-64066666D01*
X76070000Y-64133333D01*
X75936666Y-64133333D01*
X77070000Y-64066666D02*
X77270000Y-64133333D01*
X77603333Y-64133333D01*
X77736666Y-64066666D01*
X77803333Y-64000000D01*
X77870000Y-63866666D01*
X77870000Y-63733333D01*
X77803333Y-63600000D01*
X77736666Y-63533333D01*
X77603333Y-63466666D01*
X77336666Y-63400000D01*
X77203333Y-63333333D01*
X77136666Y-63266666D01*
X77070000Y-63133333D01*
X77070000Y-63000000D01*
X77136666Y-62866666D01*
X77203333Y-62800000D01*
X77336666Y-62733333D01*
X77670000Y-62733333D01*
X77870000Y-62800000D01*
X78270000Y-62733333D02*
X79070000Y-62733333D01*
X78670000Y-64133333D02*
X78670000Y-62733333D01*
X76470000Y-93213333D02*
X76470000Y-94213333D01*
X76403333Y-94413333D01*
X76270000Y-94546666D01*
X76070000Y-94613333D01*
X75936666Y-94613333D01*
X77070000Y-94546666D02*
X77270000Y-94613333D01*
X77603333Y-94613333D01*
X77736666Y-94546666D01*
X77803333Y-94480000D01*
X77870000Y-94346666D01*
X77870000Y-94213333D01*
X77803333Y-94080000D01*
X77736666Y-94013333D01*
X77603333Y-93946666D01*
X77336666Y-93880000D01*
X77203333Y-93813333D01*
X77136666Y-93746666D01*
X77070000Y-93613333D01*
X77070000Y-93480000D01*
X77136666Y-93346666D01*
X77203333Y-93280000D01*
X77336666Y-93213333D01*
X77670000Y-93213333D01*
X77870000Y-93280000D01*
X78270000Y-93213333D02*
X79070000Y-93213333D01*
X78670000Y-94613333D02*
X78670000Y-93213333D01*
X76470000Y-83053333D02*
X76470000Y-84053333D01*
X76403333Y-84253333D01*
X76270000Y-84386666D01*
X76070000Y-84453333D01*
X75936666Y-84453333D01*
X77070000Y-84386666D02*
X77270000Y-84453333D01*
X77603333Y-84453333D01*
X77736666Y-84386666D01*
X77803333Y-84320000D01*
X77870000Y-84186666D01*
X77870000Y-84053333D01*
X77803333Y-83920000D01*
X77736666Y-83853333D01*
X77603333Y-83786666D01*
X77336666Y-83720000D01*
X77203333Y-83653333D01*
X77136666Y-83586666D01*
X77070000Y-83453333D01*
X77070000Y-83320000D01*
X77136666Y-83186666D01*
X77203333Y-83120000D01*
X77336666Y-83053333D01*
X77670000Y-83053333D01*
X77870000Y-83120000D01*
X78270000Y-83053333D02*
X79070000Y-83053333D01*
X78670000Y-84453333D02*
X78670000Y-83053333D01*
X92316666Y-88130000D02*
X92250000Y-88196666D01*
X92050000Y-88263333D01*
X91916666Y-88263333D01*
X91716666Y-88196666D01*
X91583333Y-88063333D01*
X91516666Y-87930000D01*
X91450000Y-87663333D01*
X91450000Y-87463333D01*
X91516666Y-87196666D01*
X91583333Y-87063333D01*
X91716666Y-86930000D01*
X91916666Y-86863333D01*
X92050000Y-86863333D01*
X92250000Y-86930000D01*
X92316666Y-86996666D01*
X93716666Y-88130000D02*
X93650000Y-88196666D01*
X93450000Y-88263333D01*
X93316666Y-88263333D01*
X93116666Y-88196666D01*
X92983333Y-88063333D01*
X92916666Y-87930000D01*
X92850000Y-87663333D01*
X92850000Y-87463333D01*
X92916666Y-87196666D01*
X92983333Y-87063333D01*
X93116666Y-86930000D01*
X93316666Y-86863333D01*
X93450000Y-86863333D01*
X93650000Y-86930000D01*
X93716666Y-86996666D01*
X94250000Y-88196666D02*
X94450000Y-88263333D01*
X94783333Y-88263333D01*
X94916666Y-88196666D01*
X94983333Y-88130000D01*
X95050000Y-87996666D01*
X95050000Y-87863333D01*
X94983333Y-87730000D01*
X94916666Y-87663333D01*
X94783333Y-87596666D01*
X94516666Y-87530000D01*
X94383333Y-87463333D01*
X94316666Y-87396666D01*
X94250000Y-87263333D01*
X94250000Y-87130000D01*
X94316666Y-86996666D01*
X94383333Y-86930000D01*
X94516666Y-86863333D01*
X94850000Y-86863333D01*
X95050000Y-86930000D01*
X95850000Y-87463333D02*
X95716666Y-87396666D01*
X95650000Y-87330000D01*
X95583333Y-87196666D01*
X95583333Y-87130000D01*
X95650000Y-86996666D01*
X95716666Y-86930000D01*
X95850000Y-86863333D01*
X96116666Y-86863333D01*
X96250000Y-86930000D01*
X96316666Y-86996666D01*
X96383333Y-87130000D01*
X96383333Y-87196666D01*
X96316666Y-87330000D01*
X96250000Y-87396666D01*
X96116666Y-87463333D01*
X95850000Y-87463333D01*
X95716666Y-87530000D01*
X95650000Y-87596666D01*
X95583333Y-87730000D01*
X95583333Y-87996666D01*
X95650000Y-88130000D01*
X95716666Y-88196666D01*
X95850000Y-88263333D01*
X96116666Y-88263333D01*
X96250000Y-88196666D01*
X96316666Y-88130000D01*
X96383333Y-87996666D01*
X96383333Y-87730000D01*
X96316666Y-87596666D01*
X96250000Y-87530000D01*
X96116666Y-87463333D01*
X97716666Y-88263333D02*
X96916666Y-88263333D01*
X97316666Y-88263333D02*
X97316666Y-86863333D01*
X97183333Y-87063333D01*
X97050000Y-87196666D01*
X96916666Y-87263333D01*
X99050000Y-88263333D02*
X98250000Y-88263333D01*
X98650000Y-88263333D02*
X98650000Y-86863333D01*
X98516666Y-87063333D01*
X98383333Y-87196666D01*
X98250000Y-87263333D01*
X107126666Y-88133333D02*
X107460000Y-89533333D01*
X107726666Y-88533333D01*
X107993333Y-89533333D01*
X108326666Y-88133333D01*
X108793333Y-89466666D02*
X108993333Y-89533333D01*
X109326666Y-89533333D01*
X109460000Y-89466666D01*
X109526666Y-89400000D01*
X109593333Y-89266666D01*
X109593333Y-89133333D01*
X109526666Y-89000000D01*
X109460000Y-88933333D01*
X109326666Y-88866666D01*
X109060000Y-88800000D01*
X108926666Y-88733333D01*
X108860000Y-88666666D01*
X108793333Y-88533333D01*
X108793333Y-88400000D01*
X108860000Y-88266666D01*
X108926666Y-88200000D01*
X109060000Y-88133333D01*
X109393333Y-88133333D01*
X109593333Y-88200000D01*
X110126666Y-88266666D02*
X110193333Y-88200000D01*
X110326666Y-88133333D01*
X110660000Y-88133333D01*
X110793333Y-88200000D01*
X110860000Y-88266666D01*
X110926666Y-88400000D01*
X110926666Y-88533333D01*
X110860000Y-88733333D01*
X110060000Y-89533333D01*
X110926666Y-89533333D01*
X111726666Y-88733333D02*
X111593333Y-88666666D01*
X111526666Y-88600000D01*
X111460000Y-88466666D01*
X111460000Y-88400000D01*
X111526666Y-88266666D01*
X111593333Y-88200000D01*
X111726666Y-88133333D01*
X111993333Y-88133333D01*
X112126666Y-88200000D01*
X112193333Y-88266666D01*
X112260000Y-88400000D01*
X112260000Y-88466666D01*
X112193333Y-88600000D01*
X112126666Y-88666666D01*
X111993333Y-88733333D01*
X111726666Y-88733333D01*
X111593333Y-88800000D01*
X111526666Y-88866666D01*
X111460000Y-89000000D01*
X111460000Y-89266666D01*
X111526666Y-89400000D01*
X111593333Y-89466666D01*
X111726666Y-89533333D01*
X111993333Y-89533333D01*
X112126666Y-89466666D01*
X112193333Y-89400000D01*
X112260000Y-89266666D01*
X112260000Y-89000000D01*
X112193333Y-88866666D01*
X112126666Y-88800000D01*
X111993333Y-88733333D01*
X113593333Y-89533333D02*
X112793333Y-89533333D01*
X113193333Y-89533333D02*
X113193333Y-88133333D01*
X113060000Y-88333333D01*
X112926666Y-88466666D01*
X112793333Y-88533333D01*
X114126666Y-88266666D02*
X114193333Y-88200000D01*
X114326666Y-88133333D01*
X114660000Y-88133333D01*
X114793333Y-88200000D01*
X114860000Y-88266666D01*
X114926666Y-88400000D01*
X114926666Y-88533333D01*
X114860000Y-88733333D01*
X114060000Y-89533333D01*
X114926666Y-89533333D01*
X115993333Y-88800000D02*
X116193333Y-88866666D01*
X116260000Y-88933333D01*
X116326666Y-89066666D01*
X116326666Y-89266666D01*
X116260000Y-89400000D01*
X116193333Y-89466666D01*
X116060000Y-89533333D01*
X115526666Y-89533333D01*
X115526666Y-88133333D01*
X115993333Y-88133333D01*
X116126666Y-88200000D01*
X116193333Y-88266666D01*
X116260000Y-88400000D01*
X116260000Y-88533333D01*
X116193333Y-88666666D01*
X116126666Y-88733333D01*
X115993333Y-88800000D01*
X115526666Y-88800000D01*
X128946666Y-87863333D02*
X129613333Y-87863333D01*
X128813333Y-88263333D02*
X129280000Y-86863333D01*
X129746666Y-88263333D01*
X130213333Y-88263333D02*
X130213333Y-86863333D01*
X130680000Y-87863333D01*
X131146666Y-86863333D01*
X131146666Y-88263333D01*
X131680000Y-86863333D02*
X132546666Y-86863333D01*
X132080000Y-87396666D01*
X132280000Y-87396666D01*
X132413333Y-87463333D01*
X132480000Y-87530000D01*
X132546666Y-87663333D01*
X132546666Y-87996666D01*
X132480000Y-88130000D01*
X132413333Y-88196666D01*
X132280000Y-88263333D01*
X131880000Y-88263333D01*
X131746666Y-88196666D01*
X131680000Y-88130000D01*
X133880000Y-88263333D02*
X133080000Y-88263333D01*
X133480000Y-88263333D02*
X133480000Y-86863333D01*
X133346666Y-87063333D01*
X133213333Y-87196666D01*
X133080000Y-87263333D01*
X134413333Y-86996666D02*
X134480000Y-86930000D01*
X134613333Y-86863333D01*
X134946666Y-86863333D01*
X135080000Y-86930000D01*
X135146666Y-86996666D01*
X135213333Y-87130000D01*
X135213333Y-87263333D01*
X135146666Y-87463333D01*
X134346666Y-88263333D01*
X135213333Y-88263333D01*
X124000000Y-78036666D02*
X124200000Y-78103333D01*
X124533333Y-78103333D01*
X124666666Y-78036666D01*
X124733333Y-77970000D01*
X124800000Y-77836666D01*
X124800000Y-77703333D01*
X124733333Y-77570000D01*
X124666666Y-77503333D01*
X124533333Y-77436666D01*
X124266666Y-77370000D01*
X124133333Y-77303333D01*
X124066666Y-77236666D01*
X124000000Y-77103333D01*
X124000000Y-76970000D01*
X124066666Y-76836666D01*
X124133333Y-76770000D01*
X124266666Y-76703333D01*
X124600000Y-76703333D01*
X124800000Y-76770000D01*
X125400000Y-78103333D02*
X125400000Y-76703333D01*
X125400000Y-77370000D02*
X126200000Y-77370000D01*
X126200000Y-78103333D02*
X126200000Y-76703333D01*
X126666666Y-76703333D02*
X127466666Y-76703333D01*
X127066666Y-78103333D02*
X127066666Y-76703333D01*
X127800000Y-76703333D02*
X128666666Y-76703333D01*
X128200000Y-77236666D01*
X128400000Y-77236666D01*
X128533333Y-77303333D01*
X128600000Y-77370000D01*
X128666666Y-77503333D01*
X128666666Y-77836666D01*
X128600000Y-77970000D01*
X128533333Y-78036666D01*
X128400000Y-78103333D01*
X128000000Y-78103333D01*
X127866666Y-78036666D01*
X127800000Y-77970000D01*
X130000000Y-78103333D02*
X129200000Y-78103333D01*
X129600000Y-78103333D02*
X129600000Y-76703333D01*
X129466666Y-76903333D01*
X129333333Y-77036666D01*
X129200000Y-77103333D01*
X126240000Y-60860000D02*
X126440000Y-60926666D01*
X126506666Y-60993333D01*
X126573333Y-61126666D01*
X126573333Y-61326666D01*
X126506666Y-61460000D01*
X126440000Y-61526666D01*
X126306666Y-61593333D01*
X125773333Y-61593333D01*
X125773333Y-60193333D01*
X126240000Y-60193333D01*
X126373333Y-60260000D01*
X126440000Y-60326666D01*
X126506666Y-60460000D01*
X126506666Y-60593333D01*
X126440000Y-60726666D01*
X126373333Y-60793333D01*
X126240000Y-60860000D01*
X125773333Y-60860000D01*
X127173333Y-61593333D02*
X127173333Y-60193333D01*
X127173333Y-60860000D02*
X127973333Y-60860000D01*
X127973333Y-61593333D02*
X127973333Y-60193333D01*
X129373333Y-61593333D02*
X128573333Y-61593333D01*
X128973333Y-61593333D02*
X128973333Y-60193333D01*
X128840000Y-60393333D01*
X128706666Y-60526666D01*
X128573333Y-60593333D01*
X129840000Y-60193333D02*
X130773333Y-60193333D01*
X130173333Y-61593333D01*
X131973333Y-60193333D02*
X131306666Y-60193333D01*
X131240000Y-60860000D01*
X131306666Y-60793333D01*
X131440000Y-60726666D01*
X131773333Y-60726666D01*
X131906666Y-60793333D01*
X131973333Y-60860000D01*
X132040000Y-60993333D01*
X132040000Y-61326666D01*
X131973333Y-61460000D01*
X131906666Y-61526666D01*
X131773333Y-61593333D01*
X131440000Y-61593333D01*
X131306666Y-61526666D01*
X131240000Y-61460000D01*
X132906666Y-60193333D02*
X133040000Y-60193333D01*
X133173333Y-60260000D01*
X133240000Y-60326666D01*
X133306666Y-60460000D01*
X133373333Y-60726666D01*
X133373333Y-61060000D01*
X133306666Y-61326666D01*
X133240000Y-61460000D01*
X133173333Y-61526666D01*
X133040000Y-61593333D01*
X132906666Y-61593333D01*
X132773333Y-61526666D01*
X132706666Y-61460000D01*
X132640000Y-61326666D01*
X132573333Y-61060000D01*
X132573333Y-60726666D01*
X132640000Y-60460000D01*
X132706666Y-60326666D01*
X132773333Y-60260000D01*
X132906666Y-60193333D01*
D10*
X100714285Y-78940000D02*
X101285714Y-78940000D01*
X100600000Y-79282857D02*
X101000000Y-78082857D01*
X101400000Y-79282857D01*
X101800000Y-79282857D02*
X101800000Y-78082857D01*
X102085714Y-78082857D01*
X102257142Y-78140000D01*
X102371428Y-78254285D01*
X102428571Y-78368571D01*
X102485714Y-78597142D01*
X102485714Y-78768571D01*
X102428571Y-78997142D01*
X102371428Y-79111428D01*
X102257142Y-79225714D01*
X102085714Y-79282857D01*
X101800000Y-79282857D01*
X101514285Y-81822857D02*
X101114285Y-81251428D01*
X100828571Y-81822857D02*
X100828571Y-80622857D01*
X101285714Y-80622857D01*
X101400000Y-80680000D01*
X101457142Y-80737142D01*
X101514285Y-80851428D01*
X101514285Y-81022857D01*
X101457142Y-81137142D01*
X101400000Y-81194285D01*
X101285714Y-81251428D01*
X100828571Y-81251428D01*
X101857142Y-80622857D02*
X102542857Y-80622857D01*
X102200000Y-81822857D02*
X102200000Y-80622857D01*
X100971428Y-84362857D02*
X100971428Y-83162857D01*
X101542857Y-84362857D02*
X101542857Y-83162857D01*
X102228571Y-84362857D01*
X102228571Y-83162857D01*
X134420000Y-54994285D02*
X134420000Y-55565714D01*
X134077142Y-54880000D02*
X135277142Y-55280000D01*
X134077142Y-55680000D01*
X134077142Y-56080000D02*
X135277142Y-56080000D01*
X135277142Y-56365714D01*
X135220000Y-56537142D01*
X135105714Y-56651428D01*
X134991428Y-56708571D01*
X134762857Y-56765714D01*
X134591428Y-56765714D01*
X134362857Y-56708571D01*
X134248571Y-56651428D01*
X134134285Y-56537142D01*
X134077142Y-56365714D01*
X134077142Y-56080000D01*
X91948000Y-66040000D02*
X93472000Y-66040000D01*
X91440000Y-65532000D02*
X91440000Y-64008000D01*
D12*
X91691428Y-61633571D02*
X91691428Y-60133571D01*
X92548571Y-61633571D01*
X92548571Y-60133571D01*
X93477142Y-61633571D02*
X93334285Y-61562142D01*
X93262857Y-61490714D01*
X93191428Y-61347857D01*
X93191428Y-60919285D01*
X93262857Y-60776428D01*
X93334285Y-60705000D01*
X93477142Y-60633571D01*
X93691428Y-60633571D01*
X93834285Y-60705000D01*
X93905714Y-60776428D01*
X93977142Y-60919285D01*
X93977142Y-61347857D01*
X93905714Y-61490714D01*
X93834285Y-61562142D01*
X93691428Y-61633571D01*
X93477142Y-61633571D01*
X95262857Y-61633571D02*
X95262857Y-60133571D01*
X95262857Y-61562142D02*
X95120000Y-61633571D01*
X94834285Y-61633571D01*
X94691428Y-61562142D01*
X94620000Y-61490714D01*
X94548571Y-61347857D01*
X94548571Y-60919285D01*
X94620000Y-60776428D01*
X94691428Y-60705000D01*
X94834285Y-60633571D01*
X95120000Y-60633571D01*
X95262857Y-60705000D01*
X96548571Y-61562142D02*
X96405714Y-61633571D01*
X96120000Y-61633571D01*
X95977142Y-61562142D01*
X95905714Y-61419285D01*
X95905714Y-60847857D01*
X95977142Y-60705000D01*
X96120000Y-60633571D01*
X96405714Y-60633571D01*
X96548571Y-60705000D01*
X96620000Y-60847857D01*
X96620000Y-60990714D01*
X95905714Y-61133571D01*
X97262857Y-61633571D02*
X97262857Y-60133571D01*
X97762857Y-61205000D01*
X98262857Y-60133571D01*
X98262857Y-61633571D01*
X99834285Y-61490714D02*
X99762857Y-61562142D01*
X99548571Y-61633571D01*
X99405714Y-61633571D01*
X99191428Y-61562142D01*
X99048571Y-61419285D01*
X98977142Y-61276428D01*
X98905714Y-60990714D01*
X98905714Y-60776428D01*
X98977142Y-60490714D01*
X99048571Y-60347857D01*
X99191428Y-60205000D01*
X99405714Y-60133571D01*
X99548571Y-60133571D01*
X99762857Y-60205000D01*
X99834285Y-60276428D01*
X100477142Y-60133571D02*
X100477142Y-61347857D01*
X100548571Y-61490714D01*
X100620000Y-61562142D01*
X100762857Y-61633571D01*
X101048571Y-61633571D01*
X101191428Y-61562142D01*
X101262857Y-61490714D01*
X101334285Y-61347857D01*
X101334285Y-60133571D01*
X104405714Y-61633571D02*
X104334285Y-61633571D01*
X104191428Y-61562142D01*
X103977142Y-61347857D01*
X103620000Y-60919285D01*
X103477142Y-60705000D01*
X103405714Y-60490714D01*
X103405714Y-60347857D01*
X103477142Y-60205000D01*
X103620000Y-60133571D01*
X103691428Y-60133571D01*
X103834285Y-60205000D01*
X103905714Y-60347857D01*
X103905714Y-60419285D01*
X103834285Y-60562142D01*
X103762857Y-60633571D01*
X103334285Y-60919285D01*
X103262857Y-60990714D01*
X103191428Y-61133571D01*
X103191428Y-61347857D01*
X103262857Y-61490714D01*
X103334285Y-61562142D01*
X103477142Y-61633571D01*
X103691428Y-61633571D01*
X103834285Y-61562142D01*
X103905714Y-61490714D01*
X104120000Y-61205000D01*
X104191428Y-60990714D01*
X104191428Y-60847857D01*
X106120000Y-61562142D02*
X106262857Y-61633571D01*
X106548571Y-61633571D01*
X106691428Y-61562142D01*
X106762857Y-61419285D01*
X106762857Y-61347857D01*
X106691428Y-61205000D01*
X106548571Y-61133571D01*
X106334285Y-61133571D01*
X106191428Y-61062142D01*
X106120000Y-60919285D01*
X106120000Y-60847857D01*
X106191428Y-60705000D01*
X106334285Y-60633571D01*
X106548571Y-60633571D01*
X106691428Y-60705000D01*
X107977142Y-61562142D02*
X107834285Y-61633571D01*
X107548571Y-61633571D01*
X107405714Y-61562142D01*
X107334285Y-61419285D01*
X107334285Y-60847857D01*
X107405714Y-60705000D01*
X107548571Y-60633571D01*
X107834285Y-60633571D01*
X107977142Y-60705000D01*
X108048571Y-60847857D01*
X108048571Y-60990714D01*
X107334285Y-61133571D01*
X108691428Y-60633571D02*
X108691428Y-61633571D01*
X108691428Y-60776428D02*
X108762857Y-60705000D01*
X108905714Y-60633571D01*
X109120000Y-60633571D01*
X109262857Y-60705000D01*
X109334285Y-60847857D01*
X109334285Y-61633571D01*
X109977142Y-61562142D02*
X110120000Y-61633571D01*
X110405714Y-61633571D01*
X110548571Y-61562142D01*
X110620000Y-61419285D01*
X110620000Y-61347857D01*
X110548571Y-61205000D01*
X110405714Y-61133571D01*
X110191428Y-61133571D01*
X110048571Y-61062142D01*
X109977142Y-60919285D01*
X109977142Y-60847857D01*
X110048571Y-60705000D01*
X110191428Y-60633571D01*
X110405714Y-60633571D01*
X110548571Y-60705000D01*
X111477142Y-61633571D02*
X111334285Y-61562142D01*
X111262857Y-61490714D01*
X111191428Y-61347857D01*
X111191428Y-60919285D01*
X111262857Y-60776428D01*
X111334285Y-60705000D01*
X111477142Y-60633571D01*
X111691428Y-60633571D01*
X111834285Y-60705000D01*
X111905714Y-60776428D01*
X111977142Y-60919285D01*
X111977142Y-61347857D01*
X111905714Y-61490714D01*
X111834285Y-61562142D01*
X111691428Y-61633571D01*
X111477142Y-61633571D01*
X112620000Y-61633571D02*
X112620000Y-60633571D01*
X112620000Y-60919285D02*
X112691428Y-60776428D01*
X112762857Y-60705000D01*
X112905714Y-60633571D01*
X113048571Y-60633571D01*
X113477142Y-61562142D02*
X113620000Y-61633571D01*
X113905714Y-61633571D01*
X114048571Y-61562142D01*
X114120000Y-61419285D01*
X114120000Y-61347857D01*
X114048571Y-61205000D01*
X113905714Y-61133571D01*
X113691428Y-61133571D01*
X113548571Y-61062142D01*
X113477142Y-60919285D01*
X113477142Y-60847857D01*
X113548571Y-60705000D01*
X113691428Y-60633571D01*
X113905714Y-60633571D01*
X114048571Y-60705000D01*
X94048571Y-63183571D02*
X94620000Y-63183571D01*
X94262857Y-64183571D02*
X94262857Y-62897857D01*
X94334285Y-62755000D01*
X94477142Y-62683571D01*
X94620000Y-62683571D01*
X95762857Y-64183571D02*
X95762857Y-63397857D01*
X95691428Y-63255000D01*
X95548571Y-63183571D01*
X95262857Y-63183571D01*
X95120000Y-63255000D01*
X95762857Y-64112142D02*
X95620000Y-64183571D01*
X95262857Y-64183571D01*
X95120000Y-64112142D01*
X95048571Y-63969285D01*
X95048571Y-63826428D01*
X95120000Y-63683571D01*
X95262857Y-63612142D01*
X95620000Y-63612142D01*
X95762857Y-63540714D01*
X97120000Y-64112142D02*
X96977142Y-64183571D01*
X96691428Y-64183571D01*
X96548571Y-64112142D01*
X96477142Y-64040714D01*
X96405714Y-63897857D01*
X96405714Y-63469285D01*
X96477142Y-63326428D01*
X96548571Y-63255000D01*
X96691428Y-63183571D01*
X96977142Y-63183571D01*
X97120000Y-63255000D01*
X97762857Y-64183571D02*
X97762857Y-63183571D01*
X97762857Y-62683571D02*
X97691428Y-62755000D01*
X97762857Y-62826428D01*
X97834285Y-62755000D01*
X97762857Y-62683571D01*
X97762857Y-62826428D01*
X98477142Y-63183571D02*
X98477142Y-64183571D01*
X98477142Y-63326428D02*
X98548571Y-63255000D01*
X98691428Y-63183571D01*
X98905714Y-63183571D01*
X99048571Y-63255000D01*
X99120000Y-63397857D01*
X99120000Y-64183571D01*
X100477142Y-63183571D02*
X100477142Y-64397857D01*
X100405714Y-64540714D01*
X100334285Y-64612142D01*
X100191428Y-64683571D01*
X99977142Y-64683571D01*
X99834285Y-64612142D01*
X100477142Y-64112142D02*
X100334285Y-64183571D01*
X100048571Y-64183571D01*
X99905714Y-64112142D01*
X99834285Y-64040714D01*
X99762857Y-63897857D01*
X99762857Y-63469285D01*
X99834285Y-63326428D01*
X99905714Y-63255000D01*
X100048571Y-63183571D01*
X100334285Y-63183571D01*
X100477142Y-63255000D01*
X102120000Y-63183571D02*
X102691428Y-63183571D01*
X102334285Y-62683571D02*
X102334285Y-63969285D01*
X102405714Y-64112142D01*
X102548571Y-64183571D01*
X102691428Y-64183571D01*
X103191428Y-64183571D02*
X103191428Y-62683571D01*
X103834285Y-64183571D02*
X103834285Y-63397857D01*
X103762857Y-63255000D01*
X103620000Y-63183571D01*
X103405714Y-63183571D01*
X103262857Y-63255000D01*
X103191428Y-63326428D01*
X104548571Y-64183571D02*
X104548571Y-63183571D01*
X104548571Y-62683571D02*
X104477142Y-62755000D01*
X104548571Y-62826428D01*
X104620000Y-62755000D01*
X104548571Y-62683571D01*
X104548571Y-62826428D01*
X105191428Y-64112142D02*
X105334285Y-64183571D01*
X105620000Y-64183571D01*
X105762857Y-64112142D01*
X105834285Y-63969285D01*
X105834285Y-63897857D01*
X105762857Y-63755000D01*
X105620000Y-63683571D01*
X105405714Y-63683571D01*
X105262857Y-63612142D01*
X105191428Y-63469285D01*
X105191428Y-63397857D01*
X105262857Y-63255000D01*
X105405714Y-63183571D01*
X105620000Y-63183571D01*
X105762857Y-63255000D01*
X107548571Y-64112142D02*
X107691428Y-64183571D01*
X107977142Y-64183571D01*
X108120000Y-64112142D01*
X108191428Y-63969285D01*
X108191428Y-63897857D01*
X108120000Y-63755000D01*
X107977142Y-63683571D01*
X107762857Y-63683571D01*
X107620000Y-63612142D01*
X107548571Y-63469285D01*
X107548571Y-63397857D01*
X107620000Y-63255000D01*
X107762857Y-63183571D01*
X107977142Y-63183571D01*
X108120000Y-63255000D01*
X108834285Y-64183571D02*
X108834285Y-63183571D01*
X108834285Y-62683571D02*
X108762857Y-62755000D01*
X108834285Y-62826428D01*
X108905714Y-62755000D01*
X108834285Y-62683571D01*
X108834285Y-62826428D01*
X110191428Y-64183571D02*
X110191428Y-62683571D01*
X110191428Y-64112142D02*
X110048571Y-64183571D01*
X109762857Y-64183571D01*
X109620000Y-64112142D01*
X109548571Y-64040714D01*
X109477142Y-63897857D01*
X109477142Y-63469285D01*
X109548571Y-63326428D01*
X109620000Y-63255000D01*
X109762857Y-63183571D01*
X110048571Y-63183571D01*
X110191428Y-63255000D01*
X111477142Y-64112142D02*
X111334285Y-64183571D01*
X111048571Y-64183571D01*
X110905714Y-64112142D01*
X110834285Y-63969285D01*
X110834285Y-63397857D01*
X110905714Y-63255000D01*
X111048571Y-63183571D01*
X111334285Y-63183571D01*
X111477142Y-63255000D01*
X111548571Y-63397857D01*
X111548571Y-63540714D01*
X110834285Y-63683571D01*
D10*
X112417142Y-73945714D02*
X112417142Y-73374285D01*
X111845714Y-73317142D01*
X111902857Y-73374285D01*
X111960000Y-73488571D01*
X111960000Y-73774285D01*
X111902857Y-73888571D01*
X111845714Y-73945714D01*
X111731428Y-74002857D01*
X111445714Y-74002857D01*
X111331428Y-73945714D01*
X111274285Y-73888571D01*
X111217142Y-73774285D01*
X111217142Y-73488571D01*
X111274285Y-73374285D01*
X111331428Y-73317142D01*
X109477142Y-73888571D02*
X108677142Y-73888571D01*
X109934285Y-73602857D02*
X109077142Y-73317142D01*
X109077142Y-74060000D01*
X106137142Y-55651428D02*
X106137142Y-54965714D01*
X106137142Y-55308571D02*
X107337142Y-55308571D01*
X107165714Y-55194285D01*
X107051428Y-55080000D01*
X106994285Y-54965714D01*
X107337142Y-56394285D02*
X107337142Y-56508571D01*
X107280000Y-56622857D01*
X107222857Y-56680000D01*
X107108571Y-56737142D01*
X106880000Y-56794285D01*
X106594285Y-56794285D01*
X106365714Y-56737142D01*
X106251428Y-56680000D01*
X106194285Y-56622857D01*
X106137142Y-56508571D01*
X106137142Y-56394285D01*
X106194285Y-56280000D01*
X106251428Y-56222857D01*
X106365714Y-56165714D01*
X106594285Y-56108571D01*
X106880000Y-56108571D01*
X107108571Y-56165714D01*
X107222857Y-56222857D01*
X107280000Y-56280000D01*
X107337142Y-56394285D01*
X103597142Y-55651428D02*
X103597142Y-55880000D01*
X103654285Y-55994285D01*
X103711428Y-56051428D01*
X103882857Y-56165714D01*
X104111428Y-56222857D01*
X104568571Y-56222857D01*
X104682857Y-56165714D01*
X104740000Y-56108571D01*
X104797142Y-55994285D01*
X104797142Y-55765714D01*
X104740000Y-55651428D01*
X104682857Y-55594285D01*
X104568571Y-55537142D01*
X104282857Y-55537142D01*
X104168571Y-55594285D01*
X104111428Y-55651428D01*
X104054285Y-55765714D01*
X104054285Y-55994285D01*
X104111428Y-56108571D01*
X104168571Y-56165714D01*
X104282857Y-56222857D01*
X113757142Y-73431428D02*
X113757142Y-72745714D01*
X113757142Y-73088571D02*
X114957142Y-73088571D01*
X114785714Y-72974285D01*
X114671428Y-72860000D01*
X114614285Y-72745714D01*
X114957142Y-74460000D02*
X114957142Y-74231428D01*
X114900000Y-74117142D01*
X114842857Y-74060000D01*
X114671428Y-73945714D01*
X114442857Y-73888571D01*
X113985714Y-73888571D01*
X113871428Y-73945714D01*
X113814285Y-74002857D01*
X113757142Y-74117142D01*
X113757142Y-74345714D01*
X113814285Y-74460000D01*
X113871428Y-74517142D01*
X113985714Y-74574285D01*
X114271428Y-74574285D01*
X114385714Y-74517142D01*
X114442857Y-74460000D01*
X114500000Y-74345714D01*
X114500000Y-74117142D01*
X114442857Y-74002857D01*
X114385714Y-73945714D01*
X114271428Y-73888571D01*
X107337142Y-73602857D02*
X107337142Y-73717142D01*
X107280000Y-73831428D01*
X107222857Y-73888571D01*
X107108571Y-73945714D01*
X106880000Y-74002857D01*
X106594285Y-74002857D01*
X106365714Y-73945714D01*
X106251428Y-73888571D01*
X106194285Y-73831428D01*
X106137142Y-73717142D01*
X106137142Y-73602857D01*
X106194285Y-73488571D01*
X106251428Y-73431428D01*
X106365714Y-73374285D01*
X106594285Y-73317142D01*
X106880000Y-73317142D01*
X107108571Y-73374285D01*
X107222857Y-73431428D01*
X107280000Y-73488571D01*
X107337142Y-73602857D01*
X104682857Y-73317142D02*
X104740000Y-73374285D01*
X104797142Y-73488571D01*
X104797142Y-73774285D01*
X104740000Y-73888571D01*
X104682857Y-73945714D01*
X104568571Y-74002857D01*
X104454285Y-74002857D01*
X104282857Y-73945714D01*
X103597142Y-73260000D01*
X103597142Y-74002857D01*
X95977142Y-73431428D02*
X95977142Y-72745714D01*
X95977142Y-73088571D02*
X97177142Y-73088571D01*
X97005714Y-72974285D01*
X96891428Y-72860000D01*
X96834285Y-72745714D01*
X96777142Y-74460000D02*
X95977142Y-74460000D01*
X97234285Y-74174285D02*
X96377142Y-73888571D01*
X96377142Y-74631428D01*
X93437142Y-73431428D02*
X93437142Y-72745714D01*
X93437142Y-73088571D02*
X94637142Y-73088571D01*
X94465714Y-72974285D01*
X94351428Y-72860000D01*
X94294285Y-72745714D01*
X94522857Y-73888571D02*
X94580000Y-73945714D01*
X94637142Y-74060000D01*
X94637142Y-74345714D01*
X94580000Y-74460000D01*
X94522857Y-74517142D01*
X94408571Y-74574285D01*
X94294285Y-74574285D01*
X94122857Y-74517142D01*
X93437142Y-73831428D01*
X93437142Y-74574285D01*
X90897142Y-73431428D02*
X90897142Y-72745714D01*
X90897142Y-73088571D02*
X92097142Y-73088571D01*
X91925714Y-72974285D01*
X91811428Y-72860000D01*
X91754285Y-72745714D01*
X92097142Y-73831428D02*
X92097142Y-74574285D01*
X91640000Y-74174285D01*
X91640000Y-74345714D01*
X91582857Y-74460000D01*
X91525714Y-74517142D01*
X91411428Y-74574285D01*
X91125714Y-74574285D01*
X91011428Y-74517142D01*
X90954285Y-74460000D01*
X90897142Y-74345714D01*
X90897142Y-74002857D01*
X90954285Y-73888571D01*
X91011428Y-73831428D01*
X88357142Y-73431428D02*
X88357142Y-72745714D01*
X88357142Y-73088571D02*
X89557142Y-73088571D01*
X89385714Y-72974285D01*
X89271428Y-72860000D01*
X89214285Y-72745714D01*
X89557142Y-74517142D02*
X89557142Y-73945714D01*
X88985714Y-73888571D01*
X89042857Y-73945714D01*
X89100000Y-74060000D01*
X89100000Y-74345714D01*
X89042857Y-74460000D01*
X88985714Y-74517142D01*
X88871428Y-74574285D01*
X88585714Y-74574285D01*
X88471428Y-74517142D01*
X88414285Y-74460000D01*
X88357142Y-74345714D01*
X88357142Y-74060000D01*
X88414285Y-73945714D01*
X88471428Y-73888571D01*
X87017142Y-73260000D02*
X87017142Y-74002857D01*
X86560000Y-73602857D01*
X86560000Y-73774285D01*
X86502857Y-73888571D01*
X86445714Y-73945714D01*
X86331428Y-74002857D01*
X86045714Y-74002857D01*
X85931428Y-73945714D01*
X85874285Y-73888571D01*
X85817142Y-73774285D01*
X85817142Y-73431428D01*
X85874285Y-73317142D01*
X85931428Y-73260000D01*
X83277142Y-74002857D02*
X83277142Y-73317142D01*
X83277142Y-73660000D02*
X84477142Y-73660000D01*
X84305714Y-73545714D01*
X84191428Y-73431428D01*
X84134285Y-73317142D01*
X88414285Y-71812142D02*
X88357142Y-71812142D01*
X88242857Y-71755000D01*
X88185714Y-71697857D01*
X89100000Y-71755000D02*
X89042857Y-71812142D01*
X88985714Y-71755000D01*
X89042857Y-71697857D01*
X89100000Y-71755000D01*
X88985714Y-71755000D01*
X106251428Y-71755000D02*
X106194285Y-71812142D01*
X106137142Y-71755000D01*
X106194285Y-71697857D01*
X106251428Y-71755000D01*
X106137142Y-71755000D01*
X106594285Y-71755000D02*
X107280000Y-71697857D01*
X107337142Y-71755000D01*
X107280000Y-71812142D01*
X106594285Y-71755000D01*
X107337142Y-71755000D01*
X104397142Y-57413571D02*
X104397142Y-58270714D01*
X104911428Y-57756428D02*
X103368571Y-57413571D01*
X103882857Y-58156428D02*
X103882857Y-57299285D01*
X103368571Y-57813571D02*
X104911428Y-58156428D01*
X106937142Y-57413571D02*
X106937142Y-58270714D01*
X107451428Y-57756428D02*
X105908571Y-57413571D01*
X106422857Y-58156428D02*
X106422857Y-57299285D01*
X105908571Y-57813571D02*
X107451428Y-58156428D01*
X86617142Y-71383571D02*
X86617142Y-72240714D01*
X87131428Y-71726428D02*
X85588571Y-71383571D01*
X86102857Y-72126428D02*
X86102857Y-71269285D01*
X85588571Y-71783571D02*
X87131428Y-72126428D01*
X84077142Y-71097857D02*
X84077142Y-71955000D01*
X84591428Y-71440714D02*
X83048571Y-71097857D01*
X83562857Y-71840714D02*
X83562857Y-70983571D01*
X83048571Y-71497857D02*
X84591428Y-71840714D01*
X83391428Y-72355000D02*
X83334285Y-72412142D01*
X83277142Y-72355000D01*
X83334285Y-72297857D01*
X83391428Y-72355000D01*
X83277142Y-72355000D01*
X83734285Y-72355000D02*
X84420000Y-72297857D01*
X84477142Y-72355000D01*
X84420000Y-72412142D01*
X83734285Y-72355000D01*
X84477142Y-72355000D01*
X104397142Y-71097857D02*
X104397142Y-71955000D01*
X104911428Y-71440714D02*
X103368571Y-71097857D01*
X103882857Y-71840714D02*
X103882857Y-70983571D01*
X103368571Y-71497857D02*
X104911428Y-71840714D01*
X103711428Y-72355000D02*
X103654285Y-72412142D01*
X103597142Y-72355000D01*
X103654285Y-72297857D01*
X103711428Y-72355000D01*
X103597142Y-72355000D01*
X104054285Y-72355000D02*
X104740000Y-72297857D01*
X104797142Y-72355000D01*
X104740000Y-72412142D01*
X104054285Y-72355000D01*
X104797142Y-72355000D01*
X114557142Y-71383571D02*
X114557142Y-72240714D01*
X115071428Y-71726428D02*
X113528571Y-71383571D01*
X114042857Y-72126428D02*
X114042857Y-71269285D01*
X113528571Y-71783571D02*
X115071428Y-72126428D01*
X83705714Y-95862857D02*
X83934285Y-95862857D01*
X84048571Y-95920000D01*
X84162857Y-96034285D01*
X84220000Y-96262857D01*
X84220000Y-96662857D01*
X84162857Y-96891428D01*
X84048571Y-97005714D01*
X83934285Y-97062857D01*
X83705714Y-97062857D01*
X83591428Y-97005714D01*
X83477142Y-96891428D01*
X83420000Y-96662857D01*
X83420000Y-96262857D01*
X83477142Y-96034285D01*
X83591428Y-95920000D01*
X83705714Y-95862857D01*
X82905714Y-90782857D02*
X83648571Y-90782857D01*
X83248571Y-91240000D01*
X83420000Y-91240000D01*
X83534285Y-91297142D01*
X83591428Y-91354285D01*
X83648571Y-91468571D01*
X83648571Y-91754285D01*
X83591428Y-91868571D01*
X83534285Y-91925714D01*
X83420000Y-91982857D01*
X83077142Y-91982857D01*
X82962857Y-91925714D01*
X82905714Y-91868571D01*
X83991428Y-90782857D02*
X84391428Y-91982857D01*
X84791428Y-90782857D01*
X84134285Y-93380000D02*
X84020000Y-93322857D01*
X83848571Y-93322857D01*
X83677142Y-93380000D01*
X83562857Y-93494285D01*
X83505714Y-93608571D01*
X83448571Y-93837142D01*
X83448571Y-94008571D01*
X83505714Y-94237142D01*
X83562857Y-94351428D01*
X83677142Y-94465714D01*
X83848571Y-94522857D01*
X83962857Y-94522857D01*
X84134285Y-94465714D01*
X84191428Y-94408571D01*
X84191428Y-94008571D01*
X83962857Y-94008571D01*
X84134285Y-83220000D02*
X84020000Y-83162857D01*
X83848571Y-83162857D01*
X83677142Y-83220000D01*
X83562857Y-83334285D01*
X83505714Y-83448571D01*
X83448571Y-83677142D01*
X83448571Y-83848571D01*
X83505714Y-84077142D01*
X83562857Y-84191428D01*
X83677142Y-84305714D01*
X83848571Y-84362857D01*
X83962857Y-84362857D01*
X84134285Y-84305714D01*
X84191428Y-84248571D01*
X84191428Y-83848571D01*
X83962857Y-83848571D01*
X82905714Y-80622857D02*
X83648571Y-80622857D01*
X83248571Y-81080000D01*
X83420000Y-81080000D01*
X83534285Y-81137142D01*
X83591428Y-81194285D01*
X83648571Y-81308571D01*
X83648571Y-81594285D01*
X83591428Y-81708571D01*
X83534285Y-81765714D01*
X83420000Y-81822857D01*
X83077142Y-81822857D01*
X82962857Y-81765714D01*
X82905714Y-81708571D01*
X83991428Y-80622857D02*
X84391428Y-81822857D01*
X84791428Y-80622857D01*
X83705714Y-85702857D02*
X83934285Y-85702857D01*
X84048571Y-85760000D01*
X84162857Y-85874285D01*
X84220000Y-86102857D01*
X84220000Y-86502857D01*
X84162857Y-86731428D01*
X84048571Y-86845714D01*
X83934285Y-86902857D01*
X83705714Y-86902857D01*
X83591428Y-86845714D01*
X83477142Y-86731428D01*
X83420000Y-86502857D01*
X83420000Y-86102857D01*
X83477142Y-85874285D01*
X83591428Y-85760000D01*
X83705714Y-85702857D01*
X83705714Y-65382857D02*
X83934285Y-65382857D01*
X84048571Y-65440000D01*
X84162857Y-65554285D01*
X84220000Y-65782857D01*
X84220000Y-66182857D01*
X84162857Y-66411428D01*
X84048571Y-66525714D01*
X83934285Y-66582857D01*
X83705714Y-66582857D01*
X83591428Y-66525714D01*
X83477142Y-66411428D01*
X83420000Y-66182857D01*
X83420000Y-65782857D01*
X83477142Y-65554285D01*
X83591428Y-65440000D01*
X83705714Y-65382857D01*
X84134285Y-62900000D02*
X84020000Y-62842857D01*
X83848571Y-62842857D01*
X83677142Y-62900000D01*
X83562857Y-63014285D01*
X83505714Y-63128571D01*
X83448571Y-63357142D01*
X83448571Y-63528571D01*
X83505714Y-63757142D01*
X83562857Y-63871428D01*
X83677142Y-63985714D01*
X83848571Y-64042857D01*
X83962857Y-64042857D01*
X84134285Y-63985714D01*
X84191428Y-63928571D01*
X84191428Y-63528571D01*
X83962857Y-63528571D01*
X82905714Y-60302857D02*
X83648571Y-60302857D01*
X83248571Y-60760000D01*
X83420000Y-60760000D01*
X83534285Y-60817142D01*
X83591428Y-60874285D01*
X83648571Y-60988571D01*
X83648571Y-61274285D01*
X83591428Y-61388571D01*
X83534285Y-61445714D01*
X83420000Y-61502857D01*
X83077142Y-61502857D01*
X82962857Y-61445714D01*
X82905714Y-61388571D01*
X83991428Y-60302857D02*
X84391428Y-61502857D01*
X84791428Y-60302857D01*
X131594285Y-54937142D02*
X131537142Y-55108571D01*
X131537142Y-55394285D01*
X131594285Y-55508571D01*
X131651428Y-55565714D01*
X131765714Y-55622857D01*
X131880000Y-55622857D01*
X131994285Y-55565714D01*
X132051428Y-55508571D01*
X132108571Y-55394285D01*
X132165714Y-55165714D01*
X132222857Y-55051428D01*
X132280000Y-54994285D01*
X132394285Y-54937142D01*
X132508571Y-54937142D01*
X132622857Y-54994285D01*
X132680000Y-55051428D01*
X132737142Y-55165714D01*
X132737142Y-55451428D01*
X132680000Y-55622857D01*
X131537142Y-56137142D02*
X132737142Y-56137142D01*
X132737142Y-56422857D01*
X132680000Y-56594285D01*
X132565714Y-56708571D01*
X132451428Y-56765714D01*
X132222857Y-56822857D01*
X132051428Y-56822857D01*
X131822857Y-56765714D01*
X131708571Y-56708571D01*
X131594285Y-56594285D01*
X131537142Y-56422857D01*
X131537142Y-56137142D01*
X129054285Y-54937142D02*
X128997142Y-55108571D01*
X128997142Y-55394285D01*
X129054285Y-55508571D01*
X129111428Y-55565714D01*
X129225714Y-55622857D01*
X129340000Y-55622857D01*
X129454285Y-55565714D01*
X129511428Y-55508571D01*
X129568571Y-55394285D01*
X129625714Y-55165714D01*
X129682857Y-55051428D01*
X129740000Y-54994285D01*
X129854285Y-54937142D01*
X129968571Y-54937142D01*
X130082857Y-54994285D01*
X130140000Y-55051428D01*
X130197142Y-55165714D01*
X130197142Y-55451428D01*
X130140000Y-55622857D01*
X129111428Y-56822857D02*
X129054285Y-56765714D01*
X128997142Y-56594285D01*
X128997142Y-56480000D01*
X129054285Y-56308571D01*
X129168571Y-56194285D01*
X129282857Y-56137142D01*
X129511428Y-56080000D01*
X129682857Y-56080000D01*
X129911428Y-56137142D01*
X130025714Y-56194285D01*
X130140000Y-56308571D01*
X130197142Y-56480000D01*
X130197142Y-56594285D01*
X130140000Y-56765714D01*
X130082857Y-56822857D01*
X127600000Y-56194285D02*
X127657142Y-56080000D01*
X127657142Y-55908571D01*
X127600000Y-55737142D01*
X127485714Y-55622857D01*
X127371428Y-55565714D01*
X127142857Y-55508571D01*
X126971428Y-55508571D01*
X126742857Y-55565714D01*
X126628571Y-55622857D01*
X126514285Y-55737142D01*
X126457142Y-55908571D01*
X126457142Y-56022857D01*
X126514285Y-56194285D01*
X126571428Y-56251428D01*
X126971428Y-56251428D01*
X126971428Y-56022857D01*
X125117142Y-54965714D02*
X125117142Y-55708571D01*
X124660000Y-55308571D01*
X124660000Y-55480000D01*
X124602857Y-55594285D01*
X124545714Y-55651428D01*
X124431428Y-55708571D01*
X124145714Y-55708571D01*
X124031428Y-55651428D01*
X123974285Y-55594285D01*
X123917142Y-55480000D01*
X123917142Y-55137142D01*
X123974285Y-55022857D01*
X124031428Y-54965714D01*
X125117142Y-56051428D02*
X123917142Y-56451428D01*
X125117142Y-56851428D01*
X132737142Y-91325714D02*
X132737142Y-91554285D01*
X132680000Y-91668571D01*
X132565714Y-91782857D01*
X132337142Y-91840000D01*
X131937142Y-91840000D01*
X131708571Y-91782857D01*
X131594285Y-91668571D01*
X131537142Y-91554285D01*
X131537142Y-91325714D01*
X131594285Y-91211428D01*
X131708571Y-91097142D01*
X131937142Y-91040000D01*
X132337142Y-91040000D01*
X132565714Y-91097142D01*
X132680000Y-91211428D01*
X132737142Y-91325714D01*
X135220000Y-91754285D02*
X135277142Y-91640000D01*
X135277142Y-91468571D01*
X135220000Y-91297142D01*
X135105714Y-91182857D01*
X134991428Y-91125714D01*
X134762857Y-91068571D01*
X134591428Y-91068571D01*
X134362857Y-91125714D01*
X134248571Y-91182857D01*
X134134285Y-91297142D01*
X134077142Y-91468571D01*
X134077142Y-91582857D01*
X134134285Y-91754285D01*
X134191428Y-91811428D01*
X134591428Y-91811428D01*
X134591428Y-91582857D01*
X130197142Y-90525714D02*
X130197142Y-91268571D01*
X129740000Y-90868571D01*
X129740000Y-91040000D01*
X129682857Y-91154285D01*
X129625714Y-91211428D01*
X129511428Y-91268571D01*
X129225714Y-91268571D01*
X129111428Y-91211428D01*
X129054285Y-91154285D01*
X128997142Y-91040000D01*
X128997142Y-90697142D01*
X129054285Y-90582857D01*
X129111428Y-90525714D01*
X130197142Y-91611428D02*
X128997142Y-92011428D01*
X130197142Y-92411428D01*
X113757142Y-91440000D02*
X114957142Y-91440000D01*
X114957142Y-86245714D02*
X114957142Y-86474285D01*
X114900000Y-86588571D01*
X114785714Y-86702857D01*
X114557142Y-86760000D01*
X114157142Y-86760000D01*
X113928571Y-86702857D01*
X113814285Y-86588571D01*
X113757142Y-86474285D01*
X113757142Y-86245714D01*
X113814285Y-86131428D01*
X113928571Y-86017142D01*
X114157142Y-85960000D01*
X114557142Y-85960000D01*
X114785714Y-86017142D01*
X114900000Y-86131428D01*
X114957142Y-86245714D01*
X112417142Y-91211428D02*
X112417142Y-90640000D01*
X111845714Y-90582857D01*
X111902857Y-90640000D01*
X111960000Y-90754285D01*
X111960000Y-91040000D01*
X111902857Y-91154285D01*
X111845714Y-91211428D01*
X111731428Y-91268571D01*
X111445714Y-91268571D01*
X111331428Y-91211428D01*
X111274285Y-91154285D01*
X111217142Y-91040000D01*
X111217142Y-90754285D01*
X111274285Y-90640000D01*
X111331428Y-90582857D01*
X112417142Y-91611428D02*
X111217142Y-92011428D01*
X112417142Y-92411428D01*
X112417142Y-86131428D02*
X112417142Y-85560000D01*
X111845714Y-85502857D01*
X111902857Y-85560000D01*
X111960000Y-85674285D01*
X111960000Y-85960000D01*
X111902857Y-86074285D01*
X111845714Y-86131428D01*
X111731428Y-86188571D01*
X111445714Y-86188571D01*
X111331428Y-86131428D01*
X111274285Y-86074285D01*
X111217142Y-85960000D01*
X111217142Y-85674285D01*
X111274285Y-85560000D01*
X111331428Y-85502857D01*
X112417142Y-86531428D02*
X111217142Y-86931428D01*
X112417142Y-87331428D01*
X109820000Y-91754285D02*
X109877142Y-91640000D01*
X109877142Y-91468571D01*
X109820000Y-91297142D01*
X109705714Y-91182857D01*
X109591428Y-91125714D01*
X109362857Y-91068571D01*
X109191428Y-91068571D01*
X108962857Y-91125714D01*
X108848571Y-91182857D01*
X108734285Y-91297142D01*
X108677142Y-91468571D01*
X108677142Y-91582857D01*
X108734285Y-91754285D01*
X108791428Y-91811428D01*
X109191428Y-91811428D01*
X109191428Y-91582857D01*
X109820000Y-86674285D02*
X109877142Y-86560000D01*
X109877142Y-86388571D01*
X109820000Y-86217142D01*
X109705714Y-86102857D01*
X109591428Y-86045714D01*
X109362857Y-85988571D01*
X109191428Y-85988571D01*
X108962857Y-86045714D01*
X108848571Y-86102857D01*
X108734285Y-86217142D01*
X108677142Y-86388571D01*
X108677142Y-86502857D01*
X108734285Y-86674285D01*
X108791428Y-86731428D01*
X109191428Y-86731428D01*
X109191428Y-86502857D01*
X131137142Y-74145714D02*
X131308571Y-74202857D01*
X131594285Y-74202857D01*
X131708571Y-74145714D01*
X131765714Y-74088571D01*
X131822857Y-73974285D01*
X131822857Y-73860000D01*
X131765714Y-73745714D01*
X131708571Y-73688571D01*
X131594285Y-73631428D01*
X131365714Y-73574285D01*
X131251428Y-73517142D01*
X131194285Y-73460000D01*
X131137142Y-73345714D01*
X131137142Y-73231428D01*
X131194285Y-73117142D01*
X131251428Y-73060000D01*
X131365714Y-73002857D01*
X131651428Y-73002857D01*
X131822857Y-73060000D01*
X132337142Y-74202857D02*
X132337142Y-73002857D01*
X132622857Y-73002857D01*
X132794285Y-73060000D01*
X132908571Y-73174285D01*
X132965714Y-73288571D01*
X133022857Y-73517142D01*
X133022857Y-73688571D01*
X132965714Y-73917142D01*
X132908571Y-74031428D01*
X132794285Y-74145714D01*
X132622857Y-74202857D01*
X132337142Y-74202857D01*
X131137142Y-76685714D02*
X131308571Y-76742857D01*
X131594285Y-76742857D01*
X131708571Y-76685714D01*
X131765714Y-76628571D01*
X131822857Y-76514285D01*
X131822857Y-76400000D01*
X131765714Y-76285714D01*
X131708571Y-76228571D01*
X131594285Y-76171428D01*
X131365714Y-76114285D01*
X131251428Y-76057142D01*
X131194285Y-76000000D01*
X131137142Y-75885714D01*
X131137142Y-75771428D01*
X131194285Y-75657142D01*
X131251428Y-75600000D01*
X131365714Y-75542857D01*
X131651428Y-75542857D01*
X131822857Y-75600000D01*
X133022857Y-76628571D02*
X132965714Y-76685714D01*
X132794285Y-76742857D01*
X132680000Y-76742857D01*
X132508571Y-76685714D01*
X132394285Y-76571428D01*
X132337142Y-76457142D01*
X132280000Y-76228571D01*
X132280000Y-76057142D01*
X132337142Y-75828571D01*
X132394285Y-75714285D01*
X132508571Y-75600000D01*
X132680000Y-75542857D01*
X132794285Y-75542857D01*
X132965714Y-75600000D01*
X133022857Y-75657142D01*
X132394285Y-78140000D02*
X132280000Y-78082857D01*
X132108571Y-78082857D01*
X131937142Y-78140000D01*
X131822857Y-78254285D01*
X131765714Y-78368571D01*
X131708571Y-78597142D01*
X131708571Y-78768571D01*
X131765714Y-78997142D01*
X131822857Y-79111428D01*
X131937142Y-79225714D01*
X132108571Y-79282857D01*
X132222857Y-79282857D01*
X132394285Y-79225714D01*
X132451428Y-79168571D01*
X132451428Y-78768571D01*
X132222857Y-78768571D01*
X131165714Y-80622857D02*
X131908571Y-80622857D01*
X131508571Y-81080000D01*
X131680000Y-81080000D01*
X131794285Y-81137142D01*
X131851428Y-81194285D01*
X131908571Y-81308571D01*
X131908571Y-81594285D01*
X131851428Y-81708571D01*
X131794285Y-81765714D01*
X131680000Y-81822857D01*
X131337142Y-81822857D01*
X131222857Y-81765714D01*
X131165714Y-81708571D01*
X132251428Y-80622857D02*
X132651428Y-81822857D01*
X133051428Y-80622857D01*
X100485714Y-85702857D02*
X100771428Y-86902857D01*
X101000000Y-86045714D01*
X101228571Y-86902857D01*
X101514285Y-85702857D01*
X101971428Y-86902857D02*
X101971428Y-85702857D01*
X102657142Y-86902857D02*
X102142857Y-86217142D01*
X102657142Y-85702857D02*
X101971428Y-86388571D01*
X101914285Y-93380000D02*
X101800000Y-93322857D01*
X101628571Y-93322857D01*
X101457142Y-93380000D01*
X101342857Y-93494285D01*
X101285714Y-93608571D01*
X101228571Y-93837142D01*
X101228571Y-94008571D01*
X101285714Y-94237142D01*
X101342857Y-94351428D01*
X101457142Y-94465714D01*
X101628571Y-94522857D01*
X101742857Y-94522857D01*
X101914285Y-94465714D01*
X101971428Y-94408571D01*
X101971428Y-94008571D01*
X101742857Y-94008571D01*
X100685714Y-95862857D02*
X101428571Y-95862857D01*
X101028571Y-96320000D01*
X101200000Y-96320000D01*
X101314285Y-96377142D01*
X101371428Y-96434285D01*
X101428571Y-96548571D01*
X101428571Y-96834285D01*
X101371428Y-96948571D01*
X101314285Y-97005714D01*
X101200000Y-97062857D01*
X100857142Y-97062857D01*
X100742857Y-97005714D01*
X100685714Y-96948571D01*
X101771428Y-95862857D02*
X102171428Y-97062857D01*
X102571428Y-95862857D01*
X100657142Y-91925714D02*
X100828571Y-91982857D01*
X101114285Y-91982857D01*
X101228571Y-91925714D01*
X101285714Y-91868571D01*
X101342857Y-91754285D01*
X101342857Y-91640000D01*
X101285714Y-91525714D01*
X101228571Y-91468571D01*
X101114285Y-91411428D01*
X100885714Y-91354285D01*
X100771428Y-91297142D01*
X100714285Y-91240000D01*
X100657142Y-91125714D01*
X100657142Y-91011428D01*
X100714285Y-90897142D01*
X100771428Y-90840000D01*
X100885714Y-90782857D01*
X101171428Y-90782857D01*
X101342857Y-90840000D01*
X102542857Y-91868571D02*
X102485714Y-91925714D01*
X102314285Y-91982857D01*
X102200000Y-91982857D01*
X102028571Y-91925714D01*
X101914285Y-91811428D01*
X101857142Y-91697142D01*
X101800000Y-91468571D01*
X101800000Y-91297142D01*
X101857142Y-91068571D01*
X101914285Y-90954285D01*
X102028571Y-90840000D01*
X102200000Y-90782857D01*
X102314285Y-90782857D01*
X102485714Y-90840000D01*
X102542857Y-90897142D01*
X100657142Y-89385714D02*
X100828571Y-89442857D01*
X101114285Y-89442857D01*
X101228571Y-89385714D01*
X101285714Y-89328571D01*
X101342857Y-89214285D01*
X101342857Y-89100000D01*
X101285714Y-88985714D01*
X101228571Y-88928571D01*
X101114285Y-88871428D01*
X100885714Y-88814285D01*
X100771428Y-88757142D01*
X100714285Y-88700000D01*
X100657142Y-88585714D01*
X100657142Y-88471428D01*
X100714285Y-88357142D01*
X100771428Y-88300000D01*
X100885714Y-88242857D01*
X101171428Y-88242857D01*
X101342857Y-88300000D01*
X101857142Y-89442857D02*
X101857142Y-88242857D01*
X102142857Y-88242857D01*
X102314285Y-88300000D01*
X102428571Y-88414285D01*
X102485714Y-88528571D01*
X102542857Y-88757142D01*
X102542857Y-88928571D01*
X102485714Y-89157142D01*
X102428571Y-89271428D01*
X102314285Y-89385714D01*
X102142857Y-89442857D01*
X101857142Y-89442857D01*
X111274285Y-70812142D02*
X111217142Y-70983571D01*
X111217142Y-71269285D01*
X111274285Y-71383571D01*
X111331428Y-71440714D01*
X111445714Y-71497857D01*
X111560000Y-71497857D01*
X111674285Y-71440714D01*
X111731428Y-71383571D01*
X111788571Y-71269285D01*
X111845714Y-71040714D01*
X111902857Y-70926428D01*
X111960000Y-70869285D01*
X112074285Y-70812142D01*
X112188571Y-70812142D01*
X112302857Y-70869285D01*
X112360000Y-70926428D01*
X112417142Y-71040714D01*
X112417142Y-71326428D01*
X112360000Y-71497857D01*
X111331428Y-72697857D02*
X111274285Y-72640714D01*
X111217142Y-72469285D01*
X111217142Y-72355000D01*
X111274285Y-72183571D01*
X111388571Y-72069285D01*
X111502857Y-72012142D01*
X111731428Y-71955000D01*
X111902857Y-71955000D01*
X112131428Y-72012142D01*
X112245714Y-72069285D01*
X112360000Y-72183571D01*
X112417142Y-72355000D01*
X112417142Y-72469285D01*
X112360000Y-72640714D01*
X112302857Y-72697857D01*
X108734285Y-70812142D02*
X108677142Y-70983571D01*
X108677142Y-71269285D01*
X108734285Y-71383571D01*
X108791428Y-71440714D01*
X108905714Y-71497857D01*
X109020000Y-71497857D01*
X109134285Y-71440714D01*
X109191428Y-71383571D01*
X109248571Y-71269285D01*
X109305714Y-71040714D01*
X109362857Y-70926428D01*
X109420000Y-70869285D01*
X109534285Y-70812142D01*
X109648571Y-70812142D01*
X109762857Y-70869285D01*
X109820000Y-70926428D01*
X109877142Y-71040714D01*
X109877142Y-71326428D01*
X109820000Y-71497857D01*
X108677142Y-72012142D02*
X109877142Y-72012142D01*
X109877142Y-72297857D01*
X109820000Y-72469285D01*
X109705714Y-72583571D01*
X109591428Y-72640714D01*
X109362857Y-72697857D01*
X109191428Y-72697857D01*
X108962857Y-72640714D01*
X108848571Y-72583571D01*
X108734285Y-72469285D01*
X108677142Y-72297857D01*
X108677142Y-72012142D01*
X102257142Y-72745714D02*
X102257142Y-73488571D01*
X101800000Y-73088571D01*
X101800000Y-73260000D01*
X101742857Y-73374285D01*
X101685714Y-73431428D01*
X101571428Y-73488571D01*
X101285714Y-73488571D01*
X101171428Y-73431428D01*
X101114285Y-73374285D01*
X101057142Y-73260000D01*
X101057142Y-72917142D01*
X101114285Y-72802857D01*
X101171428Y-72745714D01*
X102257142Y-73831428D02*
X101057142Y-74231428D01*
X102257142Y-74631428D01*
X99660000Y-73974285D02*
X99717142Y-73860000D01*
X99717142Y-73688571D01*
X99660000Y-73517142D01*
X99545714Y-73402857D01*
X99431428Y-73345714D01*
X99202857Y-73288571D01*
X99031428Y-73288571D01*
X98802857Y-73345714D01*
X98688571Y-73402857D01*
X98574285Y-73517142D01*
X98517142Y-73688571D01*
X98517142Y-73802857D01*
X98574285Y-73974285D01*
X98631428Y-74031428D01*
X99031428Y-74031428D01*
X99031428Y-73802857D01*
X81900000Y-73974285D02*
X81957142Y-73860000D01*
X81957142Y-73688571D01*
X81900000Y-73517142D01*
X81785714Y-73402857D01*
X81671428Y-73345714D01*
X81442857Y-73288571D01*
X81271428Y-73288571D01*
X81042857Y-73345714D01*
X80928571Y-73402857D01*
X80814285Y-73517142D01*
X80757142Y-73688571D01*
X80757142Y-73802857D01*
X80814285Y-73974285D01*
X80871428Y-74031428D01*
X81271428Y-74031428D01*
X81271428Y-73802857D01*
X79357142Y-72745714D02*
X79357142Y-73488571D01*
X78900000Y-73088571D01*
X78900000Y-73260000D01*
X78842857Y-73374285D01*
X78785714Y-73431428D01*
X78671428Y-73488571D01*
X78385714Y-73488571D01*
X78271428Y-73431428D01*
X78214285Y-73374285D01*
X78157142Y-73260000D01*
X78157142Y-72917142D01*
X78214285Y-72802857D01*
X78271428Y-72745714D01*
X79357142Y-73831428D02*
X78157142Y-74231428D01*
X79357142Y-74631428D01*
X114100000Y-55022857D02*
X114100000Y-55594285D01*
X113757142Y-54908571D02*
X114957142Y-55308571D01*
X113757142Y-55708571D01*
X114957142Y-56337142D02*
X114957142Y-56451428D01*
X114900000Y-56565714D01*
X114842857Y-56622857D01*
X114728571Y-56680000D01*
X114500000Y-56737142D01*
X114214285Y-56737142D01*
X113985714Y-56680000D01*
X113871428Y-56622857D01*
X113814285Y-56565714D01*
X113757142Y-56451428D01*
X113757142Y-56337142D01*
X113814285Y-56222857D01*
X113871428Y-56165714D01*
X113985714Y-56108571D01*
X114214285Y-56051428D01*
X114500000Y-56051428D01*
X114728571Y-56108571D01*
X114842857Y-56165714D01*
X114900000Y-56222857D01*
X114957142Y-56337142D01*
X92040000Y-56194285D02*
X92097142Y-56080000D01*
X92097142Y-55908571D01*
X92040000Y-55737142D01*
X91925714Y-55622857D01*
X91811428Y-55565714D01*
X91582857Y-55508571D01*
X91411428Y-55508571D01*
X91182857Y-55565714D01*
X91068571Y-55622857D01*
X90954285Y-55737142D01*
X90897142Y-55908571D01*
X90897142Y-56022857D01*
X90954285Y-56194285D01*
X91011428Y-56251428D01*
X91411428Y-56251428D01*
X91411428Y-56022857D01*
X89557142Y-54965714D02*
X89557142Y-55708571D01*
X89100000Y-55308571D01*
X89100000Y-55480000D01*
X89042857Y-55594285D01*
X88985714Y-55651428D01*
X88871428Y-55708571D01*
X88585714Y-55708571D01*
X88471428Y-55651428D01*
X88414285Y-55594285D01*
X88357142Y-55480000D01*
X88357142Y-55137142D01*
X88414285Y-55022857D01*
X88471428Y-54965714D01*
X89557142Y-56051428D02*
X88357142Y-56451428D01*
X89557142Y-56851428D01*
X81880000Y-56194285D02*
X81937142Y-56080000D01*
X81937142Y-55908571D01*
X81880000Y-55737142D01*
X81765714Y-55622857D01*
X81651428Y-55565714D01*
X81422857Y-55508571D01*
X81251428Y-55508571D01*
X81022857Y-55565714D01*
X80908571Y-55622857D01*
X80794285Y-55737142D01*
X80737142Y-55908571D01*
X80737142Y-56022857D01*
X80794285Y-56194285D01*
X80851428Y-56251428D01*
X81251428Y-56251428D01*
X81251428Y-56022857D01*
X79357142Y-55651428D02*
X79357142Y-55080000D01*
X78785714Y-55022857D01*
X78842857Y-55080000D01*
X78900000Y-55194285D01*
X78900000Y-55480000D01*
X78842857Y-55594285D01*
X78785714Y-55651428D01*
X78671428Y-55708571D01*
X78385714Y-55708571D01*
X78271428Y-55651428D01*
X78214285Y-55594285D01*
X78157142Y-55480000D01*
X78157142Y-55194285D01*
X78214285Y-55080000D01*
X78271428Y-55022857D01*
X79357142Y-56051428D02*
X78157142Y-56451428D01*
X79357142Y-56851428D01*
M02*
