M48
METRIC,TZ
T1C0.400
T2C1.000
%
G90
G05
T1
X78740Y-73660
X78740Y-78740
X81280Y-55880
X83820Y-83820
X83820Y-93980
X85090Y-63500
X86360Y-73660
X91440Y-55880
X91440Y-86360
X93980Y-96520
X99060Y-93980
X101600Y-78740
X101600Y-96520
X106680Y-55880
X106680Y-91440
X114300Y-55880
X116840Y-73660
X116840Y-88900
X116840Y-91440
X119380Y-60960
X123190Y-63500
X127000Y-66040
X127000Y-78740
X129540Y-57150
X129540Y-71120
X132080Y-96520
T2
X81280Y-86360
X114300Y-76200
X106680Y-53340
X81280Y-93980
X114300Y-53340
X104140Y-93980
X81280Y-63500
X104140Y-86360
X134620Y-76200
X78740Y-53340
X114300Y-83820
X111760Y-76200
X86360Y-53340
X104140Y-78740
X101600Y-53340
X111760Y-83820
X104140Y-96520
X134620Y-81280
X88900Y-76200
X78740Y-76200
X114300Y-93980
X109220Y-76200
X88900Y-53340
X104140Y-81280
X81280Y-66040
X109220Y-93980
X129540Y-93980
X134620Y-73660
X83820Y-76200
X86360Y-76200
X91440Y-63500
X109220Y-53340
X106680Y-76200
X129540Y-53340
X132080Y-93980
X83820Y-53340
X81280Y-83820
X81280Y-81280
X81280Y-60960
X91440Y-76200
X81280Y-76200
X111760Y-93980
X124460Y-53340
X109220Y-83820
X104140Y-53340
X134620Y-78740
X104140Y-53340
X93980Y-66040
X134620Y-93980
X99060Y-76200
X96520Y-76200
X81280Y-53340
X111760Y-53340
X104140Y-76200
X96520Y-53340
X91440Y-66040
X99060Y-53340
X134620Y-53340
X132080Y-53340
X93980Y-76200
X81280Y-96520
X81280Y-91440
X91440Y-53340
X104140Y-88900
X127000Y-53340
X104140Y-83820
X93980Y-53340
X104140Y-91440
X101600Y-76200
T0
M30
